# Blender 5.2.1 LTS
# www.blender.org
mtllib TunnelSegment.mtl
o TunnelSegment
v -1.600000 0.000000 2.000000
v 1.600000 0.000000 2.000000
v 1.600000 2.200000 2.000000
v 1.478000 2.889000 2.000000
v 1.131000 3.473000 2.000000
v 0.612000 3.860000 2.000000
v 0.000000 4.000000 2.000000
v -0.612000 3.860000 2.000000
v -1.131000 3.473000 2.000000
v -1.478000 2.889000 2.000000
v -1.600000 2.200000 2.000000
v -1.900000 -0.250000 2.000000
v 1.900000 -0.250000 2.000000
v 1.900000 2.200000 2.000000
v 1.778000 2.989000 2.000000
v 1.361000 3.713000 2.000000
v 0.735000 4.160000 2.000000
v 0.000000 4.300000 2.000000
v -0.735000 4.160000 2.000000
v -1.361000 3.713000 2.000000
v -1.778000 2.989000 2.000000
v -1.900000 2.200000 2.000000
v -1.600000 -0.012493 1.500000
v 1.600000 -0.001774 1.500000
v 1.631954 2.200000 1.500000
v 1.487632 2.909639 1.500000
v 1.143322 3.499403 1.500000
v 0.625674 3.889300 1.500000
v 0.000000 4.027505 1.500000
v -0.622360 3.882199 1.500000
v -1.143709 3.500234 1.500000
v -1.488469 2.911433 1.500000
v -1.642333 2.200000 1.500000
v -1.910756 -0.250000 1.500000
v 1.912819 -0.250000 1.500000
v 1.934848 2.200000 1.500000
v 1.778388 2.989830 1.500000
v 1.372292 3.737197 1.500000
v 0.748295 4.188488 1.500000
v 0.000000 4.302749 1.500000
v -0.739678 4.170023 1.500000
v -1.366826 3.725484 1.500000
v -1.787605 3.009583 1.500000
v -1.935348 2.200000 1.500000
v -1.600000 -0.009394 1.000000
v 1.600000 -0.018647 1.000000
v 1.629404 2.200000 1.000000
v 1.491033 2.916928 1.000000
v 1.133882 3.479176 1.000000
v 0.618216 3.873320 1.000000
v 0.000000 4.002451 1.000000
v -0.629952 3.898468 1.000000
v -1.144994 3.502988 1.000000
v -1.486374 2.906943 1.000000
v -1.606777 2.200000 1.000000
v -1.949677 -0.250000 1.000000
v 1.935189 -0.250000 1.000000
v 1.949697 2.200000 1.000000
v 1.793694 3.022629 1.000000
v 1.377560 3.748487 1.000000
v 0.752650 4.197821 1.000000
v 0.000000 4.330503 1.000000
v -0.735735 4.161575 1.000000
v -1.361253 3.713543 1.000000
v -1.788138 3.010725 1.000000
v -1.901909 2.200000 1.000000
v -1.600000 -0.013629 0.500000
v 1.600000 -0.013767 0.500000
v 1.608704 2.200000 0.500000
v 1.479290 2.891764 0.500000
v 1.134865 3.481282 0.500000
v 0.612596 3.861277 0.500000
v 0.000000 4.025142 0.500000
v -0.630574 3.899801 0.500000
v -1.153169 3.520505 0.500000
v -1.495261 2.925988 0.500000
v -1.642823 2.200000 0.500000
v -1.912954 -0.250000 0.500000
v 1.945252 -0.250000 0.500000
v 1.942127 2.200000 0.500000
v 1.796031 3.027637 0.500000
v 1.365088 3.721760 0.500000
v 0.742617 4.176323 0.500000
v 0.000000 4.335558 0.500000
v -0.749736 4.191576 0.500000
v -1.378078 3.749597 0.500000
v -1.782202 2.998005 0.500000
v -1.950120 2.200000 0.500000
v -1.600000 -0.005574 0.000000
v 1.600000 -0.002962 0.000000
v 1.610363 2.200000 0.000000
v 1.487070 2.908437 0.000000
v 1.139110 3.490378 0.000000
v 0.614869 3.866149 0.000000
v 0.000000 4.014871 0.000000
v -0.616101 3.868789 0.000000
v -1.150945 3.515739 0.000000
v -1.488702 2.911933 0.000000
v -1.615116 2.200000 0.000000
v -1.904900 -0.250000 0.000000
v 1.921021 -0.250000 0.000000
v 1.953713 2.200000 0.000000
v 1.799244 3.034524 0.000000
v 1.373109 3.738947 0.000000
v 0.743842 4.178947 0.000000
v 0.000000 4.337064 0.000000
v -0.736003 4.162150 0.000000
v -1.361855 3.714831 0.000000
v -1.789243 3.013092 0.000000
v -1.914824 2.200000 0.000000
v -1.600000 -0.013783 -0.500000
v 1.600000 -0.002056 -0.500000
v 1.611627 2.200000 -0.500000
v 1.482329 2.898275 -0.500000
v 1.147009 3.507305 -0.500000
v 0.632370 3.903649 -0.500000
v 0.000000 4.036385 -0.500000
v -0.627982 3.894248 -0.500000
v -1.140009 3.492305 -0.500000
v -1.490315 2.915390 -0.500000
v -1.645310 2.200000 -0.500000
v -1.902786 -0.250000 -0.500000
v 1.908994 -0.250000 -0.500000
v 1.962399 2.200000 -0.500000
v 1.794230 3.023780 -0.500000
v 1.366796 3.725420 -0.500000
v 0.754635 4.202075 -0.500000
v 0.000000 4.343474 -0.500000
v -0.738044 4.166523 -0.500000
v -1.383312 3.760812 -0.500000
v -1.795515 3.026532 -0.500000
v -1.934848 2.200000 -0.500000
v -1.600000 -0.007861 -1.000000
v 1.600000 -0.020301 -1.000000
v 1.625678 2.200000 -1.000000
v 1.485130 2.904279 -1.000000
v 1.152280 3.518600 -1.000000
v 0.613940 3.864157 -1.000000
v 0.000000 4.045398 -1.000000
v -0.619424 3.875908 -1.000000
v -1.148748 3.511032 -1.000000
v -1.487313 2.908955 -1.000000
v -1.657415 2.200000 -1.000000
v -1.941824 -0.250000 -1.000000
v 1.910595 -0.250000 -1.000000
v 1.960188 2.200000 -1.000000
v 1.794908 3.025231 -1.000000
v 1.377056 3.747405 -1.000000
v 0.746590 4.184837 -1.000000
v 0.000000 4.304737 -1.000000
v -0.742847 4.176816 -1.000000
v -1.375135 3.743289 -1.000000
v -1.794874 3.025158 -1.000000
v -1.929223 2.200000 -1.000000
v -1.600000 -0.004689 -1.500000
v 1.600000 -0.014144 -1.500000
v 1.630250 2.200000 -1.500000
v 1.480624 2.894623 -1.500000
v 1.140991 3.494409 -1.500000
v 0.625653 3.889257 -1.500000
v 0.000000 4.022582 -1.500000
v -0.619701 3.876502 -1.500000
v -1.137984 3.487965 -1.500000
v -1.490237 2.915222 -1.500000
v -1.604371 2.200000 -1.500000
v -1.922102 -0.250000 -1.500000
v 1.934124 -0.250000 -1.500000
v 1.942986 2.200000 -1.500000
v 1.783471 3.000723 -1.500000
v 1.364281 3.720032 -1.500000
v 0.735661 4.161416 -1.500000
v 0.000000 4.305548 -1.500000
v -0.738798 4.168139 -1.500000
v -1.363123 3.717550 -1.500000
v -1.787508 3.009374 -1.500000
v -1.942166 2.200000 -1.500000
v -1.600000 0.000000 -2.000000
v 1.600000 0.000000 -2.000000
v 1.600000 2.200000 -2.000000
v 1.478000 2.889000 -2.000000
v 1.131000 3.473000 -2.000000
v 0.612000 3.860000 -2.000000
v 0.000000 4.000000 -2.000000
v -0.612000 3.860000 -2.000000
v -1.131000 3.473000 -2.000000
v -1.478000 2.889000 -2.000000
v -1.600000 2.200000 -2.000000
v -1.900000 -0.250000 -2.000000
v 1.900000 -0.250000 -2.000000
v 1.900000 2.200000 -2.000000
v 1.778000 2.989000 -2.000000
v 1.361000 3.713000 -2.000000
v 0.735000 4.160000 -2.000000
v 0.000000 4.300000 -2.000000
v -0.735000 4.160000 -2.000000
v -1.361000 3.713000 -2.000000
v -1.778000 2.989000 -2.000000
v -1.900000 2.200000 -2.000000
vn -0.0017 0.9999 -0.0143
vn -0.0000 -1.0000 -0.0000
vn -0.9995 0.0073 -0.0319
vn 0.9989 -0.0045 0.0476
vn -0.9814 -0.1869 -0.0447
vn 0.9842 0.1736 0.0348
vn -0.8609 -0.5070 -0.0428
vn 0.8725 0.4881 0.0224
vn -0.5986 -0.7988 -0.0601
vn 0.5826 0.8107 0.0570
vn -0.2190 -0.9740 -0.0583
vn 0.1689 0.9851 0.0330
vn 0.2249 -0.9731 -0.0507
vn -0.1818 0.9832 0.0134
vn 0.5936 -0.8030 -0.0534
vn -0.5795 0.8146 0.0244
vn 0.8604 -0.5076 -0.0451
vn -0.8640 0.5027 0.0300
vn 0.9796 -0.1930 -0.0561
vn -0.9849 0.1662 0.0477
vn 0.9991 0.0096 -0.0424
vn -0.9989 -0.0050 0.0461
vn -0.0002 0.9999 -0.0138
vn -0.9999 0.0139 0.0023
vn 0.9993 -0.0074 0.0372
vn 0.9993 -0.0075 0.0372
vn -0.9809 -0.1944 -0.0023
vn 0.9811 0.1901 0.0358
vn -0.8541 -0.5200 0.0119
vn 0.8725 0.4870 0.0394
vn -0.6040 -0.7960 0.0390
vn 0.5848 0.8109 0.0223
vn -0.2099 -0.9768 0.0417
vn 0.1622 0.9860 0.0373
vn 0.1952 -0.9807 0.0071
vn -0.2003 0.9796 0.0181
vn 0.5999 -0.7998 -0.0205
vn -0.5801 0.8142 -0.0221
vn 0.8654 -0.5011 0.0016
vn -0.8584 0.5129 -0.0099
vn 0.9811 -0.1897 0.0378
vn -0.9867 0.1593 -0.0323
vn 0.9993 0.0111 0.0356
vn -1.0000 0.0047 0.0055
vn 0.0015 1.0000 0.0007
vn -0.9997 0.0086 0.0207
vn 1.0000 -0.0023 0.0025
vn -0.9818 -0.1866 0.0366
vn 0.9836 0.1801 -0.0043
vn -0.8539 -0.5201 0.0212
vn 0.8586 0.5122 -0.0198
vn -0.5978 -0.8016 0.0107
vn 0.5860 0.8086 -0.0522
vn -0.2316 -0.9728 -0.0091
vn 0.1916 0.9813 -0.0181
vn 0.1790 -0.9836 -0.0238
vn -0.2060 0.9778 0.0372
vn 0.5982 -0.8011 -0.0204
vn -0.5774 0.8134 0.0715
vn 0.8668 -0.4976 -0.0330
vn -0.8681 0.4960 0.0210
vn 0.9818 -0.1836 -0.0476
vn -0.9842 0.1723 0.0394
vn 0.9993 0.0112 -0.0361
vn -0.9999 0.0022 0.0115
vn -0.0004 0.9998 0.0189
vn -1.0000 0.0043 -0.0016
vn 0.9999 -0.0060 -0.0126
vn -0.9840 -0.1776 -0.0123
vn 0.9839 0.1779 0.0158
vn -0.8606 -0.5087 -0.0234
vn 0.8524 0.5224 0.0222
vn -0.5854 -0.8106 -0.0152
vn 0.5813 0.8134 0.0215
vn -0.2468 -0.9691 0.0047
vn 0.2088 0.9780 0.0043
vn 0.2125 -0.9762 0.0434
vn -0.2098 0.9773 -0.0302
vn 0.5689 -0.8215 0.0389
vn -0.5770 0.8138 -0.0695
vn 0.8696 -0.4934 0.0169
vn -0.8678 0.4965 -0.0177
vn 0.9817 -0.1870 0.0363
vn -0.9835 0.1792 -0.0251
vn 0.9995 0.0131 0.0278
vn -0.9990 -0.0096 -0.0433
vn -0.0022 1.0000 -0.0073
vn -1.0000 0.0050 -0.0013
vn 0.9998 -0.0176 -0.0033
vn -0.9842 -0.1767 0.0052
vn 0.9816 0.1910 0.0015
vn -0.8674 -0.4976 -0.0061
vn 0.8546 0.5188 -0.0223
vn -0.5955 -0.8012 -0.0587
vn 0.5940 0.8044 0.0104
vn -0.2197 -0.9736 -0.0613
vn 0.1959 0.9801 0.0310
vn 0.2254 -0.9731 -0.0484
vn -0.2322 0.9726 0.0110
vn 0.5849 -0.8111 -0.0022
vn -0.5564 0.8291 0.0548
vn 0.8639 -0.5034 0.0181
vn -0.8620 0.5040 0.0539
vn 0.9806 -0.1933 -0.0319
vn -0.9868 0.1594 0.0281
vn 0.9994 0.0137 -0.0303
vn -0.9998 -0.0086 0.0179
vn 0.0001 0.9999 -0.0123
vn -0.9999 0.0084 -0.0142
vn 0.9998 -0.0210 -0.0006
vn -0.9818 -0.1889 -0.0177
vn 0.9802 0.1982 -0.0012
vn -0.8775 -0.4793 -0.0154
vn 0.8597 0.5104 0.0214
vn -0.5757 -0.8171 0.0306
vn 0.5926 0.8055 0.0052
vn -0.2441 -0.9691 0.0341
vn 0.1712 0.9836 -0.0564
vn 0.2423 -0.9701 0.0111
vn 0.2424 -0.9701 0.0111
vn -0.2016 0.9791 -0.0269
vn 0.5929 -0.8052 -0.0004
vn -0.5490 0.8358 -0.0079
vn 0.8634 -0.5045 -0.0112
vn -0.8676 0.4970 -0.0170
vn 0.9749 -0.2225 -0.0074
vn -0.9865 0.1635 -0.0064
vn 0.9997 0.0232 -0.0120
vn -0.9994 -0.0040 0.0334
vn 0.0034 1.0000 0.0093
vn -0.9999 0.0126 -0.0045
vn 0.9999 -0.0119 0.0063
vn -0.9792 -0.2031 0.0019
vn 0.9801 0.1958 -0.0329
vn -0.8744 -0.4843 0.0302
vn 0.8638 0.5016 -0.0469
vn -0.5749 -0.8182 -0.0010
vn 0.5715 0.8188 -0.0551
vn -0.2459 -0.9693 -0.0051
vn 0.1753 0.9842 -0.0242
vn 0.2468 -0.9688 0.0215
vn -0.1763 0.9843 -0.0085
vn 0.5837 -0.8116 0.0244
vn -0.5750 0.8173 -0.0373
vn 0.8619 -0.5068 0.0153
vn -0.8600 0.5089 -0.0378
vn 0.9795 -0.1955 0.0479
vn -0.9847 0.1741 0.0027
vn 0.9985 0.0140 0.0530
vn -1.0000 -0.0015 -0.0068
vn 0.0015 0.9998 0.0188
vn -0.9995 0.0068 0.0303
vn 0.9970 -0.0018 -0.0769
vn -0.9807 -0.1925 0.0333
vn 0.9835 0.1742 -0.0497
vn -0.8648 -0.5016 0.0245
vn 0.8651 0.5012 -0.0170
vn -0.6021 -0.7965 0.0546
vn 0.5779 0.8161 -0.0092
vn -0.2153 -0.9751 0.0535
vn 0.1897 0.9818 -0.0070
vn 0.2261 -0.9733 0.0398
vn -0.1850 0.9826 -0.0142
vn 0.5985 -0.8004 0.0340
vn -0.5831 0.8123 -0.0137
vn 0.8552 -0.5169 0.0377
vn -0.8620 0.5064 -0.0227
vn 0.9859 -0.1658 0.0207
vn -0.9839 0.1703 -0.0543
vn 1.0000 0.0010 0.0044
vn -0.9979 -0.0041 -0.0641
vn -0.0000 -0.0000 1.0000
vn -0.0000 -0.0000 -1.0000
vn -0.9995 0.0073 -0.0320
vn -0.9995 0.0072 -0.0320
vn -0.8609 -0.5070 -0.0427
vn -0.5986 -0.7988 -0.0600
vn -0.2189 -0.9740 -0.0583
vn 0.1688 0.9851 0.0330
vn 0.5935 -0.8030 -0.0534
vn 0.8605 -0.5075 -0.0452
vn -0.8640 0.5027 0.0299
vn 0.9796 -0.1929 -0.0561
vn -0.9989 -0.0050 0.0460
vn 0.5848 0.8109 0.0224
vn -0.2099 -0.9768 0.0416
vn 0.6000 -0.7998 -0.0206
vn -0.5802 0.8142 -0.0221
vn -0.9867 0.1592 -0.0323
vn 0.0015 1.0000 0.0006
vn -0.9997 0.0086 0.0208
vn -0.9817 -0.1866 0.0365
vn 0.9836 0.1801 -0.0042
vn -0.8538 -0.5201 0.0212
vn -0.5978 -0.8015 0.0108
vn 0.5860 0.8087 -0.0522
vn 0.1916 0.9813 -0.0180
vn 0.1789 -0.9836 -0.0237
vn -0.2060 0.9779 0.0372
vn -0.5773 0.8134 0.0715
vn -0.9842 0.1724 0.0394
vn 0.9999 -0.0060 -0.0127
vn -0.8606 -0.5087 -0.0235
vn -0.5854 -0.8106 -0.0151
vn 0.2088 0.9779 0.0043
vn -1.0000 0.0050 -0.0012
vn 0.9816 0.1910 0.0016
vn 0.1959 0.9801 0.0311
vn 0.5925 0.8055 0.0051
vn -0.2441 -0.9691 0.0340
vn 0.5930 -0.8052 -0.0004
vn 0.9749 -0.2225 -0.0075
vn 0.9801 0.1958 -0.0328
vn -0.5750 -0.8182 -0.0010
vn -0.2460 -0.9693 -0.0051
vn 0.2467 -0.9688 0.0214
vn -0.5750 0.8173 -0.0374
vn -0.9995 0.0069 0.0303
vn 0.9970 -0.0018 -0.0768
vn -0.6021 -0.7966 0.0546
vn 0.1897 0.9818 -0.0069
vn -0.1849 0.9826 -0.0142
vn -0.5831 0.8123 -0.0138
vn 0.8552 -0.5170 0.0377
vt -0.570760 -0.833333
vt 1.562574 -0.500000
vt -0.570760 -0.500000
vt -0.777930 -0.500000
vt 1.762574 -0.833333
vt -0.770760 -0.833333
vt -0.833333 -0.864491
vt -0.500000 0.602175
vt -0.500000 -0.865674
vt -0.500000 -1.031158
vt -0.833333 0.602175
vt -0.833333 -1.031158
vt -0.833333 1.061509
vt -0.500000 1.128729
vt -0.833333 1.128175
vt -0.833333 1.450842
vt -0.500000 1.075268
vt -0.833333 1.610842
vt 0.903907 -0.833333
vt 1.258121 -0.500000
vt 1.249907 -0.833333
vt 1.410768 -0.500000
vt 0.985907 -0.833333
vt 1.403240 -0.833333
vt 0.495907 -0.500000
vt 0.913023 -0.500000
vt 0.495907 -0.833333
vt 0.081001 -0.500000
vt 0.005907 -0.833333
vt 0.087907 -0.833333
vt -0.266566 -0.500000
vt -0.415310 -0.500000
vt -0.411426 -0.833333
vt -0.500000 1.076464
vt -0.500000 1.468998
vt -0.500000 1.141897
vt 1.562574 -0.166667
vt -0.570760 -0.166667
vt 1.786033 -0.166667
vt 1.771120 -0.500000
vt -0.166667 0.602175
vt -0.166667 -0.876923
vt -0.166667 -1.031158
vt -0.166667 1.454960
vt -0.166667 1.080127
vt -0.166667 1.150595
vt -0.500000 1.626974
vt 0.908051 -0.166667
vt 1.251828 -0.166667
vt 1.414281 -0.166667
vt 0.994770 -0.500000
vt 0.495907 -0.166667
vt 0.997674 -0.166667
vt 0.005417 -0.166667
vt 0.002789 -0.500000
vt -0.267423 -0.166667
vt 0.075939 -0.166667
vt -0.166667 1.470834
vt -0.166667 1.611204
vt -0.500000 1.619165
vt -0.166667 1.073471
vt -0.166667 -0.870754
vt 1.562574 0.166667
vt -0.570760 0.166667
vt -0.779396 0.166667
vt -0.803878 -0.166667
vt 0.166667 -0.873670
vt 0.166667 -1.031158
vt 0.166667 1.063352
vt 0.166667 0.602175
vt 0.166667 1.456364
vt 0.166667 1.616682
vt -0.166667 1.634500
vt 0.904304 0.166667
vt 1.252484 0.166667
vt 0.990985 0.166667
vt 0.075524 0.166667
vt 0.495907 0.166667
vt -0.272872 0.166667
vt -0.422812 0.166667
vt -0.411595 -0.166667
vt 0.166667 1.086167
vt 0.166667 1.482512
vt 0.166667 1.134179
vt -0.166667 1.142658
vt -0.570760 0.500000
vt 1.776588 0.500000
vt 1.792742 0.166667
vt 0.500000 -0.866466
vt 0.500000 0.602175
vt 0.166667 1.153933
vt 0.500000 1.074466
vt 0.500000 1.158525
vt 1.255314 0.500000
vt 1.411313 0.500000
vt 1.405966 0.166667
vt 0.495907 0.500000
vt 0.905820 0.500000
vt 0.085173 0.500000
vt 0.005238 0.500000
vt -0.003917 0.166667
vt 0.500000 1.479335
vt 0.500000 1.612063
vt 0.166667 1.635240
vt 0.500000 1.076797
vt 0.500000 -0.868208
vt 1.562574 0.833333
vt -0.570760 0.833333
vt -0.774027 0.500000
vt 1.768569 0.833333
vt 0.833333 -0.865862
vt 0.500000 -1.031158
vt 0.833333 0.602175
vt 0.833333 1.067692
vt 0.833333 1.151362
vt 0.500000 1.462427
vt 0.833333 1.619122
vt 0.500000 1.628140
vt 1.260580 0.833333
vt 1.407104 0.833333
vt 0.991802 0.500000
vt 0.495907 0.833333
vt 0.917487 0.833333
vt 0.003878 0.833333
vt -0.264099 0.833333
vt 0.077252 0.833333
vt -0.426301 0.833333
vt -0.411996 0.500000
vt 0.833333 1.463712
vt 0.833333 1.153197
vt 0.500000 1.144237
vt 0.833333 1.079102
vt 0.833333 -1.031158
vt -0.570760 1.166667
vt -0.772617 0.833333
vt 1.769637 1.166667
vt 1.166667 0.602175
vt 1.166667 -0.878025
vt 0.833333 1.473712
vt 1.166667 1.071695
vt 1.166667 1.152329
vt 0.905200 1.166667
vt 1.264094 1.166667
vt 1.413944 1.166667
vt 0.998997 0.833333
vt 0.495907 1.166667
vt 0.082958 1.166667
vt -0.269925 1.166667
vt 0.000675 1.166667
vt 1.166667 1.074812
vt 1.166667 1.476197
vt 1.166667 1.631035
vt 0.833333 1.642717
vt 1.166667 1.152281
vt 1.166667 -0.869732
vt 1.166667 -1.031158
vt 1.562574 1.500000
vt -0.570760 1.500000
vt -0.785494 1.500000
vt -0.798642 1.166667
vt 1.500000 -0.873920
vt 1.500000 -1.031158
vt 1.500000 1.065257
vt 1.500000 0.602175
vt 1.500000 1.135991
vt 1.500000 1.465115
vt 1.500000 1.615530
vt 1.166667 1.633779
vt 1.256567 1.500000
vt 0.986348 1.500000
vt 0.993634 1.166667
vt 0.495907 1.500000
vt 0.913009 1.500000
vt 0.003375 1.500000
vt 0.082773 1.500000
vt -0.420850 1.166667
vt 1.500000 1.460819
vt 1.500000 1.613875
vt 1.500000 1.078990
vt 1.500000 1.141758
vt 1.500000 -0.867617
vt 1.562574 1.833333
vt -0.570760 1.833333
vt 1.762574 1.833333
vt 1.785323 1.500000
vt 1.833333 -0.864491
vt 1.833333 0.602175
vt 1.833333 1.128175
vt 1.833333 1.450842
vt 1.833333 1.061509
vt 1.833333 1.610842
vt 0.903907 1.833333
vt 1.249907 1.833333
vt 1.405428 1.500000
vt 0.985907 1.833333
vt 0.495907 1.833333
vt 0.005907 1.833333
vt -0.262749 1.500000
vt 0.087907 1.833333
vt -0.412842 1.500000
vt -0.770760 -1.031158
vt 1.562574 -0.864491
vt -0.570760 -0.864491
vt 1.762574 0.602175
vt 1.562574 0.602175
vt 1.481240 1.061509
vt 1.681240 1.128175
vt 1.249907 1.450842
vt 1.403240 1.610842
vt 0.903907 1.708842
vt 0.985907 1.908842
vt 0.495907 1.802175
vt 0.005907 1.908842
vt 0.087907 1.708842
vt -0.411426 1.610842
vt -0.258093 1.450842
vt -0.689426 1.128175
vt -0.489426 1.061509
vt -0.770760 0.602175
vt -0.570760 0.602175
vt 1.762574 -1.031158
vt 0.495907 2.002175
vt 1.562574 -0.833333
vt -0.500000 1.468444
vt -0.258093 -0.833333
vt -0.500000 -0.872820
vt 0.166667 -0.873577
vt 1.562574 0.500000
vt -0.271389 0.500000
vt 0.833333 -0.873680
vt 1.562574 1.166667
vt 1.166667 1.481242
vt -0.770760 1.833333
vt 1.833333 -1.031158
vt 1.403240 1.833333
vt -0.258093 1.833333
vt -0.411426 1.833333
s 0
usemtl M_TunnelDark
f 34/4/2 13/5/2 12/6/2
f 2/7/3 25/8/3 24/9/3
f 35/10/4 14/11/4 13/12/4
f 4/13/5 25/8/5 3/11/5
f 14/11/6 37/14/6 15/15/6
f 5/16/7 26/17/7 4/13/7
f 37/14/8 16/18/8 15/15/8
f 6/19/9 27/20/9 5/21/9
f 38/22/10 17/23/10 16/24/10
f 6/19/11 29/25/11 28/26/11
f 17/23/12 40/25/12 18/27/12
f 7/27/13 30/28/13 29/25/13
f 40/25/14 19/29/14 18/27/14
f 8/30/15 31/31/15 30/28/15
f 19/29/16 42/32/16 20/33/16
f 9/16/17 32/34/17 31/35/17
f 20/18/18 43/36/18 21/15/18
f 10/13/19 33/8/19 32/34/19
f 21/15/20 44/8/20 22/11/20
f 1/7/21 33/8/21 11/11/21
f 22/11/22 34/10/22 12/12/22
f 34/4/2 57/39/2 35/40/2
f 24/9/24 47/41/24 46/42/24
f 57/43/25 36/8/26 35/10/26
f 26/17/27 47/41/27 25/8/27
f 58/41/28 37/14/28 36/8/28
f 26/17/29 49/44/29 48/45/29
f 59/46/30 38/47/30 37/14/30
f 27/20/31 50/48/31 49/49/31
f 60/50/32 39/51/32 38/22/32
f 28/26/33 51/52/33 50/48/33
f 61/53/34 40/25/34 39/51/34
f 30/28/35 51/52/35 29/25/35
f 40/25/36 63/54/36 41/55/36
f 30/28/37 53/56/37 52/57/37
f 63/54/38 42/32/38 41/55/38
f 32/34/39 53/58/39 31/35/39
f 64/59/40 43/36/40 42/60/40
f 32/34/41 55/41/41 54/61/41
f 43/36/42 66/41/42 44/8/42
f 33/8/43 45/62/43 55/41/43
f 66/41/44 34/10/44 44/8/44
f 78/65/2 57/39/2 56/66/2
f 47/41/46 68/67/46 46/42/46
f 79/68/47 58/41/47 57/43/47
f 47/41/48 70/69/48 69/70/48
f 80/70/49 59/46/49 58/41/49
f 48/45/50 71/71/50 70/69/50
f 59/46/51 82/72/51 60/73/51
f 49/49/52 72/74/52 71/75/52
f 60/50/53 83/76/53 61/53/53
f 51/52/54 72/74/54 50/48/54
f 83/76/55 62/52/55 61/53/55
f 51/52/56 74/77/56 73/78/56
f 84/78/57 63/54/57 62/52/57
f 52/57/58 75/79/58 74/77/58
f 63/54/59 86/80/59 64/81/59
f 53/58/60 76/82/60 75/83/60
f 64/59/61 87/84/61 65/85/61
f 54/61/62 77/70/62 76/82/62
f 87/84/63 66/41/63 65/85/63
f 45/62/64 77/70/64 55/41/64
f 88/70/65 56/43/65 66/41/65
f 78/65/2 101/87/2 79/88/2
f 69/70/67 90/89/67 68/67/67
f 79/68/68 102/90/68 80/70/68
f 70/69/69 91/90/69 69/70/69
f 102/90/70 81/91/70 80/70/70
f 71/71/71 92/92/71 70/69/71
f 103/93/72 82/72/72 81/91/72
f 72/74/73 93/94/73 71/75/73
f 104/95/74 83/76/74 82/96/74
f 72/74/75 95/97/75 94/98/75
f 83/76/76 106/97/76 84/78/76
f 73/78/77 96/99/77 95/97/77
f 84/78/78 107/100/78 85/101/78
f 75/79/79 96/99/79 74/77/79
f 107/100/80 86/80/80 85/101/80
f 76/82/81 97/102/81 75/83/81
f 108/103/82 87/84/82 86/104/82
f 77/70/83 98/105/83 76/82/83
f 87/84/84 110/90/84 88/70/84
f 77/70/85 89/106/85 99/90/85
f 110/90/86 78/68/86 88/70/86
f 100/109/2 123/110/2 101/87/2
f 91/90/88 112/111/88 90/89/88
f 101/112/89 124/113/89 102/90/89
f 91/90/90 114/114/90 113/113/90
f 102/90/91 125/115/91 103/93/91
f 93/116/92 114/114/92 92/92/92
f 103/93/93 126/117/93 104/118/93
f 94/98/94 115/119/94 93/94/94
f 126/120/95 105/121/95 104/95/95
f 94/98/96 117/122/96 116/123/96
f 105/121/97 128/122/97 106/97/97
f 96/99/98 117/122/98 95/97/98
f 106/97/99 129/124/99 107/100/99
f 96/99/100 119/125/100 118/126/100
f 107/100/101 130/127/101 108/128/101
f 98/105/102 119/129/102 97/102/102
f 108/103/103 131/130/103 109/131/103
f 99/90/104 120/132/104 98/105/104
f 109/131/105 132/113/105 110/90/105
f 89/106/106 121/113/106 99/90/106
f 110/90/107 122/133/107 100/112/107
f 122/135/2 145/136/2 123/110/2
f 112/111/109 135/137/109 134/138/109
f 123/133/110 146/137/110 124/113/110
f 114/114/111 135/137/111 113/113/111
f 146/137/112 125/115/112 124/113/112
f 115/139/113 136/140/113 114/114/113
f 147/141/114 126/117/114 125/115/114
f 115/119/115 138/142/115 137/143/115
f 148/144/116 127/145/116 126/120/116
f 117/122/117 138/142/117 116/123/117
f 127/145/118 150/146/118 128/122/118
f 117/122/119 140/147/120 139/146/119
f 150/146/121 129/124/121 128/122/121
f 118/126/122 141/148/122 140/147/122
f 151/149/123 130/127/123 129/124/123
f 119/129/124 142/150/124 141/151/124
f 152/152/125 131/130/125 130/153/125
f 121/113/126 142/150/126 120/132/126
f 153/154/127 132/113/127 131/130/127
f 121/113/128 133/155/128 143/137/128
f 132/113/129 144/156/129 122/133/129
f 166/159/2 145/136/2 144/160/2
f 135/137/131 156/161/131 134/138/131
f 167/162/132 146/137/132 145/156/132
f 135/137/133 158/163/133 157/164/133
f 146/137/134 169/165/134 147/141/134
f 136/140/135 159/166/135 158/163/135
f 147/141/136 170/167/136 148/168/136
f 138/142/137 159/169/137 137/143/137
f 148/144/138 171/170/138 149/171/138
f 138/142/139 161/172/139 160/173/139
f 171/170/140 150/146/140 149/171/140
f 140/147/141 161/172/141 139/146/141
f 150/146/142 173/174/142 151/149/142
f 141/148/143 162/175/143 140/147/143
f 173/174/144 152/176/144 151/149/144
f 142/150/145 163/177/145 141/151/145
f 174/178/146 153/154/146 152/152/146
f 142/150/147 165/164/147 164/179/147
f 175/180/148 154/137/148 153/154/148
f 143/137/149 155/181/149 165/164/149
f 176/164/150 144/156/150 154/137/150
f 166/159/2 189/184/2 167/185/2
f 157/164/152 178/186/152 156/161/152
f 167/162/153 190/187/153 168/164/153
f 158/163/154 179/187/154 157/164/154
f 168/164/155 191/188/155 169/165/155
f 158/163/156 181/189/156 180/190/156
f 169/165/157 192/191/157 170/167/157
f 159/169/158 182/192/158 181/193/158
f 170/194/159 193/195/159 171/170/159
f 161/172/160 182/192/160 160/173/160
f 171/170/161 194/196/161 172/172/161
f 162/175/162 183/196/162 161/172/162
f 172/172/163 195/197/163 173/174/163
f 163/198/164 184/199/164 162/175/164
f 195/197/165 174/200/165 173/174/165
f 164/179/166 185/189/166 163/177/166
f 196/191/167 175/180/167 174/178/167
f 165/164/168 186/190/168 164/179/168
f 197/188/169 176/164/169 175/180/169
f 165/164/170 177/186/170 187/187/170
f 198/187/171 166/162/171 176/164/171
f 12/201/172 2/202/172 1/203/172
f 2/202/172 14/204/172 3/205/172
f 14/204/172 4/206/172 3/205/172
f 15/207/172 5/208/172 4/206/172
f 16/209/172 6/210/172 5/208/172
f 17/211/172 7/212/172 6/210/172
f 7/212/172 19/213/172 8/214/172
f 8/214/172 20/215/172 9/216/172
f 9/216/172 21/217/172 10/218/172
f 10/218/172 22/219/172 11/220/172
f 22/219/172 1/203/172 11/220/172
f 178/202/173 188/201/173 177/203/173
f 178/202/173 190/204/173 189/221/173
f 180/206/173 190/204/173 179/205/173
f 181/208/173 191/207/173 180/206/173
f 182/210/173 192/209/173 181/208/173
f 183/212/173 193/211/173 182/210/173
f 183/212/173 195/213/173 194/222/173
f 184/214/173 196/215/173 195/213/173
f 185/216/173 197/217/173 196/215/173
f 186/218/173 198/219/173 197/217/173
f 177/203/173 198/219/173 187/220/173
f 34/4/2 35/40/2 13/5/2
f 2/7/174 3/11/175 25/8/175
f 35/10/4 36/8/4 14/11/4
f 4/13/5 26/17/5 25/8/5
f 14/11/6 36/8/6 37/14/6
f 5/16/176 27/224/176 26/17/176
f 37/14/8 38/47/8 16/18/8
f 6/19/177 28/26/177 27/20/177
f 38/22/10 39/51/10 17/23/10
f 6/19/178 7/27/178 29/25/178
f 17/23/179 39/51/179 40/25/179
f 7/27/13 8/30/13 30/28/13
f 40/25/14 41/55/14 19/29/14
f 8/30/180 9/225/180 31/31/180
f 19/29/16 41/55/16 42/32/16
f 9/16/181 10/13/181 32/34/181
f 20/18/182 42/60/182 43/36/182
f 10/13/183 11/11/183 33/8/183
f 21/15/20 43/36/20 44/8/20
f 1/7/21 23/226/21 33/8/21
f 22/11/184 44/8/184 34/10/184
f 34/4/2 56/66/2 57/39/2
f 24/9/24 25/8/24 47/41/24
f 57/43/26 58/41/26 36/8/26
f 26/17/27 48/45/27 47/41/27
f 58/41/28 59/46/28 37/14/28
f 26/17/29 27/224/29 49/44/29
f 59/46/30 60/73/30 38/47/30
f 27/20/31 28/26/31 50/48/31
f 60/50/185 61/53/185 39/51/185
f 28/26/186 29/25/186 51/52/186
f 61/53/34 62/52/34 40/25/34
f 30/28/35 52/57/35 51/52/35
f 40/25/36 62/52/36 63/54/36
f 30/28/187 31/31/187 53/56/187
f 63/54/188 64/81/188 42/32/188
f 32/34/39 54/61/39 53/58/39
f 64/59/40 65/85/40 43/36/40
f 32/34/41 33/8/41 55/41/41
f 43/36/189 65/85/189 66/41/189
f 33/8/43 23/226/43 45/62/43
f 66/41/44 56/43/44 34/10/44
f 78/65/2 79/88/2 57/39/2
f 47/41/191 69/70/191 68/67/191
f 79/68/47 80/70/47 58/41/47
f 47/41/192 48/45/192 70/69/192
f 80/70/193 81/91/193 59/46/193
f 48/45/194 49/44/194 71/71/194
f 59/46/51 81/91/51 82/72/51
f 49/49/195 50/48/195 72/74/195
f 60/50/196 82/96/196 83/76/196
f 51/52/54 73/78/54 72/74/54
f 83/76/197 84/78/197 62/52/197
f 51/52/198 52/57/198 74/77/198
f 84/78/199 85/101/199 63/54/199
f 52/57/58 53/56/58 75/79/58
f 63/54/200 85/101/200 86/80/200
f 53/58/60 54/61/60 76/82/60
f 64/59/61 86/104/61 87/84/61
f 54/61/62 55/41/62 77/70/62
f 87/84/63 88/70/63 66/41/201
f 45/62/64 67/227/64 77/70/64
f 88/70/65 78/68/65 56/43/65
f 78/65/2 100/109/2 101/87/2
f 69/70/67 91/90/67 90/89/67
f 79/68/202 101/112/202 102/90/202
f 70/69/69 92/92/69 91/90/69
f 102/90/70 103/93/70 81/91/70
f 71/71/203 93/116/203 92/92/203
f 103/93/72 104/118/72 82/72/72
f 72/74/204 94/98/204 93/94/204
f 104/95/74 105/121/74 83/76/74
f 72/74/75 73/78/75 95/97/75
f 83/76/205 105/121/205 106/97/205
f 73/78/77 74/77/77 96/99/77
f 84/78/78 106/97/78 107/100/78
f 75/79/79 97/229/79 96/99/79
f 107/100/80 108/128/80 86/80/80
f 76/82/81 98/105/81 97/102/81
f 108/103/82 109/131/82 87/84/82
f 77/70/83 99/90/83 98/105/83
f 87/84/84 109/131/84 110/90/84
f 77/70/85 67/227/85 89/106/85
f 110/90/86 100/112/86 78/68/86
f 100/109/2 122/135/2 123/110/2
f 91/90/206 113/113/206 112/111/206
f 101/112/89 123/133/89 124/113/89
f 91/90/90 92/92/90 114/114/90
f 102/90/207 124/113/207 125/115/207
f 93/116/92 115/139/92 114/114/92
f 103/93/93 125/115/93 126/117/93
f 94/98/94 116/123/94 115/119/94
f 126/120/95 127/145/95 105/121/95
f 94/98/96 95/97/96 117/122/96
f 105/121/208 127/145/208 128/122/208
f 96/99/98 118/126/98 117/122/98
f 106/97/99 128/122/99 129/124/99
f 96/99/100 97/229/100 119/125/100
f 107/100/101 129/124/101 130/127/101
f 98/105/102 120/132/102 119/129/102
f 108/103/103 130/153/103 131/130/103
f 99/90/104 121/113/104 120/132/104
f 109/131/105 131/130/105 132/113/105
f 89/106/106 111/230/106 121/113/106
f 110/90/107 132/113/107 122/133/107
f 122/135/2 144/160/2 145/136/2
f 112/111/109 113/113/109 135/137/109
f 123/133/110 145/156/110 146/137/110
f 114/114/111 136/140/111 135/137/111
f 146/137/112 147/141/112 125/115/112
f 115/139/113 137/232/113 136/140/113
f 147/141/114 148/168/114 126/117/114
f 115/119/115 116/123/115 138/142/115
f 148/144/209 149/171/209 127/145/209
f 117/122/210 139/146/210 138/142/210
f 127/145/118 149/171/118 150/146/118
f 117/122/119 118/126/119 140/147/119
f 150/146/121 151/149/121 129/124/121
f 118/126/211 119/125/211 141/148/211
f 151/149/123 152/176/123 130/127/123
f 119/129/124 120/132/124 142/150/124
f 152/152/125 153/154/125 131/130/125
f 121/113/212 143/137/212 142/150/212
f 153/154/127 154/137/127 132/113/127
f 121/113/128 111/230/128 133/155/128
f 132/113/129 154/137/129 144/156/129
f 166/159/2 167/185/2 145/136/2
f 135/137/131 157/164/131 156/161/131
f 167/162/132 168/164/132 146/137/132
f 135/137/133 136/140/133 158/163/133
f 146/137/213 168/164/213 169/165/213
f 136/140/135 137/232/135 159/166/135
f 147/141/136 169/165/136 170/167/136
f 138/142/214 160/173/214 159/169/214
f 148/144/138 170/194/138 171/170/138
f 138/142/215 139/146/215 161/172/215
f 171/170/140 172/172/140 150/146/140
f 140/147/216 162/175/216 161/172/216
f 150/146/142 172/172/142 173/174/142
f 141/148/143 163/198/143 162/175/143
f 173/174/217 174/200/217 152/176/217
f 142/150/145 164/179/145 163/177/145
f 174/178/146 175/180/146 153/154/146
f 142/150/147 143/137/147 165/164/147
f 175/180/148 176/164/148 154/137/148
f 143/137/149 133/155/149 155/181/149
f 176/164/150 166/162/150 144/156/150
f 166/159/2 188/233/2 189/184/2
f 157/164/218 179/187/218 178/186/218
f 167/162/219 189/234/219 190/187/219
f 158/163/154 180/190/154 179/187/154
f 168/164/155 190/187/155 191/188/155
f 158/163/156 159/166/156 181/189/156
f 169/165/157 191/188/157 192/191/157
f 159/169/158 160/173/220 182/192/220
f 170/194/159 192/235/159 193/195/159
f 161/172/160 183/196/160 182/192/160
f 171/170/221 193/195/221 194/196/221
f 162/175/162 184/199/162 183/196/162
f 172/172/222 194/196/163 195/197/222
f 163/198/164 185/236/164 184/199/164
f 195/197/223 196/237/223 174/200/223
f 164/179/224 186/190/224 185/189/224
f 196/191/167 197/188/167 175/180/167
f 165/164/168 187/187/168 186/190/168
f 197/188/169 198/187/169 176/164/169
f 165/164/170 155/181/170 177/186/170
f 198/187/171 188/234/171 166/162/171
f 12/201/172 13/221/172 2/202/172
f 2/202/172 13/221/172 14/204/172
f 14/204/172 15/207/172 4/206/172
f 15/207/172 16/209/172 5/208/172
f 16/209/172 17/211/172 6/210/172
f 17/211/172 18/222/172 7/212/172
f 7/212/172 18/222/172 19/213/172
f 8/214/172 19/213/172 20/215/172
f 9/216/172 20/215/172 21/217/172
f 10/218/172 21/217/172 22/219/172
f 22/219/172 12/201/172 1/203/172
f 178/202/173 189/221/173 188/201/173
f 178/202/173 179/205/173 190/204/173
f 180/206/173 191/207/173 190/204/173
f 181/208/173 192/209/173 191/207/173
f 182/210/173 193/211/173 192/209/173
f 183/212/173 194/222/173 193/211/173
f 183/212/173 184/214/173 195/213/173
f 184/214/173 185/216/173 196/215/173
f 185/216/173 186/218/173 197/217/173
f 186/218/173 187/220/173 198/219/173
f 177/203/173 188/201/173 198/219/173
usemtl M_PathStone
f 1/1/1 24/2/1 23/3/1
f 23/3/23 46/37/23 45/38/23
f 45/38/45 68/63/45 67/64/45
f 68/63/66 89/86/66 67/64/66
f 89/86/87 112/107/87 111/108/87
f 112/107/108 133/134/108 111/108/108
f 133/134/130 156/157/130 155/158/130
f 155/158/151 178/182/151 177/183/151
f 1/1/1 2/223/1 24/2/1
f 23/3/23 24/2/23 46/37/23
f 45/38/190 46/37/190 68/63/190
f 68/63/66 90/228/66 89/86/66
f 89/86/87 90/228/87 112/107/87
f 112/107/108 134/231/108 133/134/108
f 133/134/130 134/231/130 156/157/130
f 155/158/151 156/157/151 178/182/151
o TunnelSegment_FloorJoint
v -1.590000 -0.004000 1.459000
v -1.590000 0.000000 1.459000
v -1.590000 -0.004000 1.441000
v -1.590000 0.000000 1.441000
v 1.590000 -0.004000 1.459000
v 1.590000 0.000000 1.459000
v 1.590000 -0.004000 1.441000
v 1.590000 0.000000 1.441000
vn -1.0000 -0.0000 -0.0000
vn -0.0000 -0.0000 -1.0000
vn 1.0000 -0.0000 -0.0000
vn -0.0000 -0.0000 1.0000
vn -0.0000 -1.0000 -0.0000
vn -0.0000 1.0000 -0.0000
vt 0.494000 0.501333
vt 0.506000 0.498667
vt 0.494000 0.498667
vt -0.560000 0.501333
vt 1.560000 0.498667
vt -0.560000 0.498667
vt 0.506000 0.501333
vt 1.560000 0.501333
vt 1.560000 0.506000
vt -0.560000 0.494000
vt -0.560000 0.506000
vt 1.560000 0.494000
s 0
usemtl M_Groove
f 200/238/225 201/239/225 199/240/225
f 202/241/226 205/242/226 201/243/226
f 206/244/227 203/240/227 205/239/227
f 204/245/228 199/243/228 203/242/228
f 205/246/229 199/247/229 201/248/229
f 202/248/230 204/249/230 206/246/230
f 200/238/225 202/244/225 201/239/225
f 202/241/226 206/245/226 205/242/226
f 206/244/227 204/238/227 203/240/227
f 204/245/228 200/241/228 199/243/228
f 205/246/229 203/249/229 199/247/229
f 202/248/230 200/247/230 204/249/230
o TunnelSegment_FloorJoint.001
v -1.590000 -0.004000 0.659000
v -1.590000 0.000000 0.659000
v -1.590000 -0.004000 0.641000
v -1.590000 0.000000 0.641000
v 1.590000 -0.004000 0.659000
v 1.590000 0.000000 0.659000
v 1.590000 -0.004000 0.641000
v 1.590000 0.000000 0.641000
vn -1.0000 -0.0000 -0.0000
vn -0.0000 -0.0000 -1.0000
vn 1.0000 -0.0000 -0.0000
vn -0.0000 -0.0000 1.0000
vn -0.0000 -1.0000 -0.0000
vn -0.0000 1.0000 -0.0000
vt 0.494000 0.501333
vt 0.506000 0.498667
vt 0.494000 0.498667
vt -0.560000 0.501333
vt 1.560000 0.498667
vt -0.560000 0.498667
vt 0.506000 0.501333
vt 1.560000 0.501333
vt 1.560000 0.506000
vt -0.560000 0.494000
vt -0.560000 0.506000
vt 1.560000 0.494000
s 0
usemtl M_Groove
f 208/250/231 209/251/231 207/252/231
f 210/253/232 213/254/232 209/255/232
f 214/256/233 211/252/233 213/251/233
f 212/257/234 207/255/234 211/254/234
f 213/258/235 207/259/235 209/260/235
f 210/260/236 212/261/236 214/258/236
f 208/250/231 210/256/231 209/251/231
f 210/253/232 214/257/232 213/254/232
f 214/256/233 212/250/233 211/252/233
f 212/257/234 208/253/234 207/255/234
f 213/258/235 211/261/235 207/259/235
f 210/260/236 208/259/236 212/261/236
o TunnelSegment_FloorJoint.002
v -1.590000 -0.004000 -0.141000
v -1.590000 0.000000 -0.141000
v -1.590000 -0.004000 -0.159000
v -1.590000 0.000000 -0.159000
v 1.590000 -0.004000 -0.141000
v 1.590000 0.000000 -0.141000
v 1.590000 -0.004000 -0.159000
v 1.590000 0.000000 -0.159000
vn -1.0000 -0.0000 -0.0000
vn -0.0000 -0.0000 -1.0000
vn 1.0000 -0.0000 -0.0000
vn -0.0000 -0.0000 1.0000
vn -0.0000 -1.0000 -0.0000
vn -0.0000 1.0000 -0.0000
vt 0.494000 0.501333
vt 0.506000 0.498667
vt 0.494000 0.498667
vt -0.560000 0.501333
vt 1.560000 0.498667
vt -0.560000 0.498667
vt 0.506000 0.501333
vt 1.560000 0.501333
vt 1.560000 0.506000
vt -0.560000 0.494000
vt -0.560000 0.506000
vt 1.560000 0.494000
s 0
usemtl M_Groove
f 216/262/237 217/263/237 215/264/237
f 218/265/238 221/266/238 217/267/238
f 222/268/239 219/264/239 221/263/239
f 220/269/240 215/267/240 219/266/240
f 221/270/241 215/271/241 217/272/241
f 218/272/242 220/273/242 222/270/242
f 216/262/237 218/268/237 217/263/237
f 218/265/238 222/269/238 221/266/238
f 222/268/239 220/262/239 219/264/239
f 220/269/240 216/265/240 215/267/240
f 221/270/241 219/273/241 215/271/241
f 218/272/242 216/271/242 220/273/242
o TunnelSegment_FloorJoint.003
v -1.590000 -0.004000 -0.941000
v -1.590000 0.000000 -0.941000
v -1.590000 -0.004000 -0.959000
v -1.590000 0.000000 -0.959000
v 1.590000 -0.004000 -0.941000
v 1.590000 0.000000 -0.941000
v 1.590000 -0.004000 -0.959000
v 1.590000 0.000000 -0.959000
vn -1.0000 -0.0000 -0.0000
vn -0.0000 -0.0000 -1.0000
vn 1.0000 -0.0000 -0.0000
vn -0.0000 -0.0000 1.0000
vn -0.0000 -1.0000 -0.0000
vn -0.0000 1.0000 -0.0000
vt 0.494000 0.501333
vt 0.506000 0.498667
vt 0.494000 0.498667
vt -0.560000 0.501333
vt 1.560000 0.498667
vt -0.560000 0.498667
vt 0.506000 0.501333
vt 1.560000 0.501333
vt 1.560000 0.506000
vt -0.560000 0.494000
vt -0.560000 0.506000
vt 1.560000 0.494000
s 0
usemtl M_Groove
f 224/274/243 225/275/243 223/276/243
f 226/277/244 229/278/244 225/279/244
f 230/280/245 227/276/245 229/275/245
f 228/281/246 223/279/246 227/278/246
f 229/282/247 223/283/247 225/284/247
f 226/284/248 228/285/248 230/282/248
f 224/274/243 226/280/243 225/275/243
f 226/277/244 230/281/244 229/278/244
f 230/280/245 228/274/245 227/276/245
f 228/281/246 224/277/246 223/279/246
f 229/282/247 227/285/247 223/283/247
f 226/284/248 224/283/248 228/285/248
