# Blender 5.2.1 LTS
# www.blender.org
mtllib TunnelLantern.mtl
o TunnelLantern
v -0.058000 -0.150000 -0.012000
v -0.058000 -0.138000 0.000000
v -0.070000 -0.138000 -0.012000
v -0.058000 -0.146485 -0.003515
v -0.064928 -0.144928 -0.005072
v -0.066485 -0.138000 -0.003515
v -0.066485 -0.146485 -0.012000
v -0.058000 0.138000 0.000000
v -0.058000 0.150000 -0.012000
v -0.070000 0.138000 -0.012000
v -0.058000 0.146485 -0.003515
v -0.064928 0.144928 -0.005072
v -0.066485 0.146485 -0.012000
v -0.066485 0.138000 -0.003515
v -0.058000 -0.150000 -0.038000
v -0.070000 -0.138000 -0.038000
v -0.058000 -0.138000 -0.050000
v -0.066485 -0.146485 -0.038000
v -0.064928 -0.144928 -0.044928
v -0.066485 -0.138000 -0.046485
v -0.058000 -0.146485 -0.046485
v -0.058000 0.150000 -0.038000
v -0.058000 0.138000 -0.050000
v -0.070000 0.138000 -0.038000
v -0.058000 0.146485 -0.046485
v -0.064928 0.144928 -0.044928
v -0.066485 0.138000 -0.046485
v -0.066485 0.146485 -0.038000
v 0.058000 -0.150000 -0.012000
v 0.070000 -0.138000 -0.012000
v 0.058000 -0.138000 0.000000
v 0.066485 -0.146485 -0.012000
v 0.064928 -0.144928 -0.005072
v 0.066485 -0.138000 -0.003515
v 0.058000 -0.146485 -0.003515
v 0.058000 0.150000 -0.012000
v 0.058000 0.138000 0.000000
v 0.070000 0.138000 -0.012000
v 0.058000 0.146485 -0.003515
v 0.064928 0.144928 -0.005072
v 0.066485 0.138000 -0.003515
v 0.066485 0.146485 -0.012000
v 0.058000 -0.150000 -0.038000
v 0.058000 -0.138000 -0.050000
v 0.070000 -0.138000 -0.038000
v 0.058000 -0.146485 -0.046485
v 0.064928 -0.144928 -0.044928
v 0.066485 -0.138000 -0.046485
v 0.066485 -0.146485 -0.038000
v 0.058000 0.150000 -0.038000
v 0.070000 0.138000 -0.038000
v 0.058000 0.138000 -0.050000
v 0.066485 0.146485 -0.038000
v 0.064928 0.144928 -0.044928
v 0.066485 0.138000 -0.046485
v 0.058000 0.146485 -0.046485
v 0.017100 0.083232 -0.043354
v 0.017100 0.078996 -0.049708
v 0.022500 0.084291 -0.048649
v 0.017100 0.079798 -0.045653
v 0.020218 0.080623 -0.046203
v 0.020918 0.080547 -0.049398
v 0.020918 0.083542 -0.044904
v 0.017100 0.136878 -0.339117
v 0.017100 0.143232 -0.343354
v 0.022500 0.142173 -0.338058
v 0.017100 0.139178 -0.342552
v 0.020218 0.139727 -0.341727
v 0.020918 0.142922 -0.341803
v 0.020918 0.138429 -0.338807
v 0.017100 0.116768 -0.036646
v 0.022500 0.117827 -0.041942
v 0.017100 0.123122 -0.040883
v 0.020918 0.117078 -0.038197
v 0.020218 0.120273 -0.038273
v 0.020918 0.121571 -0.041193
v 0.017100 0.120822 -0.037448
v 0.017100 0.176768 -0.336646
v 0.017100 0.181004 -0.330292
v 0.022500 0.175709 -0.331351
v 0.017100 0.180202 -0.334347
v 0.020218 0.179377 -0.333797
v 0.020918 0.179453 -0.330602
v 0.020918 0.176458 -0.335095
v -0.017100 0.083232 -0.043354
v -0.022500 0.084291 -0.048649
v -0.017100 0.078996 -0.049708
v -0.020918 0.083542 -0.044904
v -0.020218 0.080623 -0.046203
v -0.020918 0.080547 -0.049398
v -0.017100 0.079798 -0.045653
v -0.017100 0.143232 -0.343354
v -0.017100 0.136878 -0.339117
v -0.022500 0.142173 -0.338058
v -0.017100 0.139178 -0.342552
v -0.020218 0.139727 -0.341727
v -0.020918 0.138429 -0.338807
v -0.020918 0.142922 -0.341803
v -0.017100 0.116768 -0.036646
v -0.017100 0.123122 -0.040883
v -0.022500 0.117827 -0.041942
v -0.017100 0.120822 -0.037448
v -0.020218 0.120273 -0.038273
v -0.020918 0.121571 -0.041193
v -0.020918 0.117078 -0.038197
v -0.017100 0.176768 -0.336646
v -0.022500 0.175709 -0.331351
v -0.017100 0.181004 -0.330292
v -0.020918 0.176458 -0.335095
v -0.020218 0.179377 -0.333797
v -0.020918 0.179453 -0.330602
v -0.017100 0.180202 -0.334347
v -0.085880 -0.200000 -0.349120
v -0.085880 -0.197120 -0.352000
v -0.083000 -0.197120 -0.349120
v -0.085880 -0.199156 -0.351156
v -0.084217 -0.198783 -0.350783
v -0.083844 -0.197120 -0.351156
v -0.083844 -0.199156 -0.349120
v -0.085880 0.097120 -0.352000
v -0.085880 0.100000 -0.349120
v -0.083000 0.097120 -0.349120
v -0.085880 0.099156 -0.351156
v -0.084217 0.098783 -0.350783
v -0.083844 0.099156 -0.349120
v -0.083844 0.097120 -0.351156
v -0.085880 -0.200000 -0.330880
v -0.083000 -0.197120 -0.330880
v -0.085880 -0.197120 -0.328000
v -0.083844 -0.199156 -0.330880
v -0.084217 -0.198783 -0.329217
v -0.083844 -0.197120 -0.328844
v -0.085880 -0.199156 -0.328844
v -0.085880 0.100000 -0.330880
v -0.085880 0.097120 -0.328000
v -0.083000 0.097120 -0.330880
v -0.085880 0.099156 -0.328844
v -0.084217 0.098783 -0.329217
v -0.083844 0.097120 -0.328844
v -0.083844 0.099156 -0.330880
v -0.104120 -0.200000 -0.349120
v -0.107000 -0.197120 -0.349120
v -0.104120 -0.197120 -0.352000
v -0.106156 -0.199156 -0.349120
v -0.105783 -0.198783 -0.350783
v -0.106156 -0.197120 -0.351156
v -0.104120 -0.199156 -0.351156
v -0.104120 0.100000 -0.349120
v -0.104120 0.097120 -0.352000
v -0.107000 0.097120 -0.349120
v -0.104120 0.099156 -0.351156
v -0.105783 0.098783 -0.350783
v -0.106156 0.097120 -0.351156
v -0.106156 0.099156 -0.349120
v -0.104120 -0.200000 -0.330880
v -0.104120 -0.197120 -0.328000
v -0.107000 -0.197120 -0.330880
v -0.104120 -0.199156 -0.328844
v -0.105783 -0.198783 -0.329217
v -0.106156 -0.197120 -0.328844
v -0.106156 -0.199156 -0.330880
v -0.104120 0.100000 -0.330880
v -0.107000 0.097120 -0.330880
v -0.104120 0.097120 -0.328000
v -0.106156 0.099156 -0.330880
v -0.105783 0.098783 -0.329217
v -0.106156 0.097120 -0.328844
v -0.104120 0.099156 -0.328844
v 0.104120 -0.200000 -0.349120
v 0.104120 -0.197120 -0.352000
v 0.107000 -0.197120 -0.349120
v 0.104120 -0.199156 -0.351156
v 0.105783 -0.198783 -0.350783
v 0.106156 -0.197120 -0.351156
v 0.106156 -0.199156 -0.349120
v 0.104120 0.097120 -0.352000
v 0.104120 0.100000 -0.349120
v 0.107000 0.097120 -0.349120
v 0.104120 0.099156 -0.351156
v 0.105783 0.098783 -0.350783
v 0.106156 0.099156 -0.349120
v 0.106156 0.097120 -0.351156
v 0.104120 -0.200000 -0.330880
v 0.107000 -0.197120 -0.330880
v 0.104120 -0.197120 -0.328000
v 0.106156 -0.199156 -0.330880
v 0.105783 -0.198783 -0.329217
v 0.106156 -0.197120 -0.328844
v 0.104120 -0.199156 -0.328844
v 0.104120 0.100000 -0.330880
v 0.104120 0.097120 -0.328000
v 0.107000 0.097120 -0.330880
v 0.104120 0.099156 -0.328844
v 0.105783 0.098783 -0.329217
v 0.106156 0.097120 -0.328844
v 0.106156 0.099156 -0.330880
v 0.085880 -0.200000 -0.349120
v 0.083000 -0.197120 -0.349120
v 0.085880 -0.197120 -0.352000
v 0.083844 -0.199156 -0.349120
v 0.084217 -0.198783 -0.350783
v 0.083844 -0.197120 -0.351156
v 0.085880 -0.199156 -0.351156
v 0.085880 0.100000 -0.349120
v 0.085880 0.097120 -0.352000
v 0.083000 0.097120 -0.349120
v 0.085880 0.099156 -0.351156
v 0.084217 0.098783 -0.350783
v 0.083844 0.097120 -0.351156
v 0.083844 0.099156 -0.349120
v 0.085880 -0.200000 -0.330880
v 0.085880 -0.197120 -0.328000
v 0.083000 -0.197120 -0.330880
v 0.085880 -0.199156 -0.328844
v 0.084217 -0.198783 -0.329217
v 0.083844 -0.197120 -0.328844
v 0.083844 -0.199156 -0.330880
v 0.085880 0.100000 -0.330880
v 0.083000 0.097120 -0.330880
v 0.085880 0.097120 -0.328000
v 0.083844 0.099156 -0.330880
v 0.084217 0.098783 -0.329217
v 0.083844 0.097120 -0.328844
v 0.085880 0.099156 -0.328844
v -0.087400 -0.200000 -0.282600
v -0.087400 -0.197600 -0.285000
v -0.085000 -0.197600 -0.282600
v -0.087400 -0.199297 -0.284297
v -0.086014 -0.198986 -0.283986
v -0.085703 -0.197600 -0.284297
v -0.085703 -0.199297 -0.282600
v -0.087400 0.097600 -0.285000
v -0.087400 0.100000 -0.282600
v -0.085000 0.097600 -0.282600
v -0.087400 0.099297 -0.284297
v -0.086014 0.098986 -0.283986
v -0.085703 0.099297 -0.282600
v -0.085703 0.097600 -0.284297
v -0.087400 -0.200000 -0.267400
v -0.085000 -0.197600 -0.267400
v -0.087400 -0.197600 -0.265000
v -0.085703 -0.199297 -0.267400
v -0.086014 -0.198986 -0.266014
v -0.085703 -0.197600 -0.265703
v -0.087400 -0.199297 -0.265703
v -0.087400 0.100000 -0.267400
v -0.087400 0.097600 -0.265000
v -0.085000 0.097600 -0.267400
v -0.087400 0.099297 -0.265703
v -0.086014 0.098986 -0.266014
v -0.085703 0.097600 -0.265703
v -0.085703 0.099297 -0.267400
v -0.102600 -0.200000 -0.282600
v -0.105000 -0.197600 -0.282600
v -0.102600 -0.197600 -0.285000
v -0.104297 -0.199297 -0.282600
v -0.103986 -0.198986 -0.283986
v -0.104297 -0.197600 -0.284297
v -0.102600 -0.199297 -0.284297
v -0.102600 0.100000 -0.282600
v -0.102600 0.097600 -0.285000
v -0.105000 0.097600 -0.282600
v -0.102600 0.099297 -0.284297
v -0.103986 0.098986 -0.283986
v -0.104297 0.097600 -0.284297
v -0.104297 0.099297 -0.282600
v -0.102600 -0.200000 -0.267400
v -0.102600 -0.197600 -0.265000
v -0.105000 -0.197600 -0.267400
v -0.102600 -0.199297 -0.265703
v -0.103986 -0.198986 -0.266014
v -0.104297 -0.197600 -0.265703
v -0.104297 -0.199297 -0.267400
v -0.102600 0.100000 -0.267400
v -0.105000 0.097600 -0.267400
v -0.102600 0.097600 -0.265000
v -0.104297 0.099297 -0.267400
v -0.103986 0.098986 -0.266014
v -0.104297 0.097600 -0.265703
v -0.102600 0.099297 -0.265703
v 0.102600 -0.200000 -0.282600
v 0.102600 -0.197600 -0.285000
v 0.105000 -0.197600 -0.282600
v 0.102600 -0.199297 -0.284297
v 0.103986 -0.198986 -0.283986
v 0.104297 -0.197600 -0.284297
v 0.104297 -0.199297 -0.282600
v 0.102600 0.097600 -0.285000
v 0.102600 0.100000 -0.282600
v 0.105000 0.097600 -0.282600
v 0.102600 0.099297 -0.284297
v 0.103986 0.098986 -0.283986
v 0.104297 0.099297 -0.282600
v 0.104297 0.097600 -0.284297
v 0.102600 -0.200000 -0.267400
v 0.105000 -0.197600 -0.267400
v 0.102600 -0.197600 -0.265000
v 0.104297 -0.199297 -0.267400
v 0.103986 -0.198986 -0.266014
v 0.104297 -0.197600 -0.265703
v 0.102600 -0.199297 -0.265703
v 0.102600 0.100000 -0.267400
v 0.102600 0.097600 -0.265000
v 0.105000 0.097600 -0.267400
v 0.102600 0.099297 -0.265703
v 0.103986 0.098986 -0.266014
v 0.104297 0.097600 -0.265703
v 0.104297 0.099297 -0.267400
v 0.087400 -0.200000 -0.282600
v 0.085000 -0.197600 -0.282600
v 0.087400 -0.197600 -0.285000
v 0.085703 -0.199297 -0.282600
v 0.086014 -0.198986 -0.283986
v 0.085703 -0.197600 -0.284297
v 0.087400 -0.199297 -0.284297
v 0.087400 0.100000 -0.282600
v 0.087400 0.097600 -0.285000
v 0.085000 0.097600 -0.282600
v 0.087400 0.099297 -0.284297
v 0.086014 0.098986 -0.283986
v 0.085703 0.097600 -0.284297
v 0.085703 0.099297 -0.282600
v 0.087400 -0.200000 -0.267400
v 0.087400 -0.197600 -0.265000
v 0.085000 -0.197600 -0.267400
v 0.087400 -0.199297 -0.265703
v 0.086014 -0.198986 -0.266014
v 0.085703 -0.197600 -0.265703
v 0.085703 -0.199297 -0.267400
v 0.087400 0.100000 -0.267400
v 0.085000 0.097600 -0.267400
v 0.087400 0.097600 -0.265000
v 0.085703 0.099297 -0.267400
v 0.086014 0.098986 -0.266014
v 0.085703 0.097600 -0.265703
v 0.087400 0.099297 -0.265703
v -0.087400 -0.200000 -0.412600
v -0.087400 -0.197600 -0.415000
v -0.085000 -0.197600 -0.412600
v -0.087400 -0.199297 -0.414297
v -0.086014 -0.198986 -0.413986
v -0.085703 -0.197600 -0.414297
v -0.085703 -0.199297 -0.412600
v -0.087400 0.097600 -0.415000
v -0.087400 0.100000 -0.412600
v -0.085000 0.097600 -0.412600
v -0.087400 0.099297 -0.414297
v -0.086014 0.098986 -0.413986
v -0.085703 0.099297 -0.412600
v -0.085703 0.097600 -0.414297
v -0.087400 -0.200000 -0.397400
v -0.085000 -0.197600 -0.397400
v -0.087400 -0.197600 -0.395000
v -0.085703 -0.199297 -0.397400
v -0.086014 -0.198986 -0.396014
v -0.085703 -0.197600 -0.395703
v -0.087400 -0.199297 -0.395703
v -0.087400 0.100000 -0.397400
v -0.087400 0.097600 -0.395000
v -0.085000 0.097600 -0.397400
v -0.087400 0.099297 -0.395703
v -0.086014 0.098986 -0.396014
v -0.085703 0.097600 -0.395703
v -0.085703 0.099297 -0.397400
v -0.102600 -0.200000 -0.412600
v -0.105000 -0.197600 -0.412600
v -0.102600 -0.197600 -0.415000
v -0.104297 -0.199297 -0.412600
v -0.103986 -0.198986 -0.413986
v -0.104297 -0.197600 -0.414297
v -0.102600 -0.199297 -0.414297
v -0.102600 0.100000 -0.412600
v -0.102600 0.097600 -0.415000
v -0.105000 0.097600 -0.412600
v -0.102600 0.099297 -0.414297
v -0.103986 0.098986 -0.413986
v -0.104297 0.097600 -0.414297
v -0.104297 0.099297 -0.412600
v -0.102600 -0.200000 -0.397400
v -0.102600 -0.197600 -0.395000
v -0.105000 -0.197600 -0.397400
v -0.102600 -0.199297 -0.395703
v -0.103986 -0.198986 -0.396014
v -0.104297 -0.197600 -0.395703
v -0.104297 -0.199297 -0.397400
v -0.102600 0.100000 -0.397400
v -0.105000 0.097600 -0.397400
v -0.102600 0.097600 -0.395000
v -0.104297 0.099297 -0.397400
v -0.103986 0.098986 -0.396014
v -0.104297 0.097600 -0.395703
v -0.102600 0.099297 -0.395703
v 0.102600 -0.200000 -0.412600
v 0.102600 -0.197600 -0.415000
v 0.105000 -0.197600 -0.412600
v 0.102600 -0.199297 -0.414297
v 0.103986 -0.198986 -0.413986
v 0.104297 -0.197600 -0.414297
v 0.104297 -0.199297 -0.412600
v 0.102600 0.097600 -0.415000
v 0.102600 0.100000 -0.412600
v 0.105000 0.097600 -0.412600
v 0.102600 0.099297 -0.414297
v 0.103986 0.098986 -0.413986
v 0.104297 0.099297 -0.412600
v 0.104297 0.097600 -0.414297
v 0.102600 -0.200000 -0.397400
v 0.105000 -0.197600 -0.397400
v 0.102600 -0.197600 -0.395000
v 0.104297 -0.199297 -0.397400
v 0.103986 -0.198986 -0.396014
v 0.104297 -0.197600 -0.395703
v 0.102600 -0.199297 -0.395703
v 0.102600 0.100000 -0.397400
v 0.102600 0.097600 -0.395000
v 0.105000 0.097600 -0.397400
v 0.102600 0.099297 -0.395703
v 0.103986 0.098986 -0.396014
v 0.104297 0.097600 -0.395703
v 0.104297 0.099297 -0.397400
v 0.087400 -0.200000 -0.412600
v 0.085000 -0.197600 -0.412600
v 0.087400 -0.197600 -0.415000
v 0.085703 -0.199297 -0.412600
v 0.086014 -0.198986 -0.413986
v 0.085703 -0.197600 -0.414297
v 0.087400 -0.199297 -0.414297
v 0.087400 0.100000 -0.412600
v 0.087400 0.097600 -0.415000
v 0.085000 0.097600 -0.412600
v 0.087400 0.099297 -0.414297
v 0.086014 0.098986 -0.413986
v 0.085703 0.097600 -0.414297
v 0.085703 0.099297 -0.412600
v 0.087400 -0.200000 -0.397400
v 0.087400 -0.197600 -0.395000
v 0.085000 -0.197600 -0.397400
v 0.087400 -0.199297 -0.395703
v 0.086014 -0.198986 -0.396014
v 0.085703 -0.197600 -0.395703
v 0.085703 -0.199297 -0.397400
v 0.087400 0.100000 -0.397400
v 0.085000 0.097600 -0.397400
v 0.087400 0.097600 -0.395000
v 0.085703 0.099297 -0.397400
v 0.086014 0.098986 -0.396014
v 0.085703 0.097600 -0.395703
v 0.087400 0.099297 -0.395703
v -0.105000 0.100000 -0.265000
v -0.105000 0.115000 -0.250000
v -0.120000 0.115000 -0.265000
v -0.105000 0.104393 -0.254393
v -0.113660 0.106340 -0.256340
v -0.115607 0.115000 -0.254393
v -0.115607 0.104393 -0.265000
v -0.105000 0.145000 -0.250000
v -0.105000 0.160000 -0.265000
v -0.120000 0.145000 -0.265000
v -0.105000 0.155607 -0.254393
v -0.113660 0.153660 -0.256340
v -0.115607 0.155607 -0.265000
v -0.115607 0.145000 -0.254393
v -0.105000 0.100000 -0.415000
v -0.120000 0.115000 -0.415000
v -0.105000 0.115000 -0.430000
v -0.115607 0.104393 -0.415000
v -0.113660 0.106340 -0.423660
v -0.115607 0.115000 -0.425607
v -0.105000 0.104393 -0.425607
v -0.105000 0.160000 -0.415000
v -0.105000 0.145000 -0.430000
v -0.120000 0.145000 -0.415000
v -0.105000 0.155607 -0.425607
v -0.113660 0.153660 -0.423660
v -0.115607 0.145000 -0.425607
v -0.115607 0.155607 -0.415000
v 0.105000 0.100000 -0.265000
v 0.120000 0.115000 -0.265000
v 0.105000 0.115000 -0.250000
v 0.115607 0.104393 -0.265000
v 0.113660 0.106340 -0.256340
v 0.115607 0.115000 -0.254393
v 0.105000 0.104393 -0.254393
v 0.105000 0.160000 -0.265000
v 0.105000 0.145000 -0.250000
v 0.120000 0.145000 -0.265000
v 0.105000 0.155607 -0.254393
v 0.113660 0.153660 -0.256340
v 0.115607 0.145000 -0.254393
v 0.115607 0.155607 -0.265000
v 0.105000 0.100000 -0.415000
v 0.105000 0.115000 -0.430000
v 0.120000 0.115000 -0.415000
v 0.105000 0.104393 -0.425607
v 0.113660 0.106340 -0.423660
v 0.115607 0.115000 -0.425607
v 0.115607 0.104393 -0.415000
v 0.105000 0.160000 -0.415000
v 0.120000 0.145000 -0.415000
v 0.105000 0.145000 -0.430000
v 0.115607 0.155607 -0.415000
v 0.113660 0.153660 -0.423660
v 0.115607 0.145000 -0.425607
v 0.105000 0.155607 -0.425607
v 0.000000 -0.200000 -0.385000
v 0.000000 -0.290000 -0.343600
v -0.038971 -0.200000 -0.362500
v -0.003118 -0.290000 -0.341800
v -0.038971 -0.200000 -0.317500
v -0.003118 -0.290000 -0.338200
v -0.000000 -0.200000 -0.295000
v -0.000000 -0.290000 -0.336400
v 0.038971 -0.200000 -0.317500
v 0.003118 -0.290000 -0.338200
v 0.038971 -0.200000 -0.362500
v 0.003118 -0.290000 -0.341800
v -0.052000 -0.165000 -0.303000
v -0.052000 -0.147000 -0.285000
v -0.070000 -0.147000 -0.303000
v -0.052000 -0.159728 -0.290272
v -0.062392 -0.157392 -0.292608
v -0.064728 -0.147000 -0.290272
v -0.064728 -0.159728 -0.303000
v -0.052000 0.047000 -0.285000
v -0.052000 0.065000 -0.303000
v -0.070000 0.047000 -0.303000
v -0.052000 0.059728 -0.290272
v -0.062392 0.057392 -0.292608
v -0.064728 0.059728 -0.303000
v -0.064728 0.047000 -0.290272
v -0.052000 -0.165000 -0.377000
v -0.070000 -0.147000 -0.377000
v -0.052000 -0.147000 -0.395000
v -0.064728 -0.159728 -0.377000
v -0.062392 -0.157392 -0.387392
v -0.064728 -0.147000 -0.389728
v -0.052000 -0.159728 -0.389728
v -0.052000 0.065000 -0.377000
v -0.052000 0.047000 -0.395000
v -0.070000 0.047000 -0.377000
v -0.052000 0.059728 -0.389728
v -0.062392 0.057392 -0.387392
v -0.064728 0.047000 -0.389728
v -0.064728 0.059728 -0.377000
v 0.052000 -0.165000 -0.303000
v 0.070000 -0.147000 -0.303000
v 0.052000 -0.147000 -0.285000
v 0.064728 -0.159728 -0.303000
v 0.062392 -0.157392 -0.292608
v 0.064728 -0.147000 -0.290272
v 0.052000 -0.159728 -0.290272
v 0.052000 0.065000 -0.303000
v 0.052000 0.047000 -0.285000
v 0.070000 0.047000 -0.303000
v 0.052000 0.059728 -0.290272
v 0.062392 0.057392 -0.292608
v 0.064728 0.047000 -0.290272
v 0.064728 0.059728 -0.303000
v 0.052000 -0.165000 -0.377000
v 0.052000 -0.147000 -0.395000
v 0.070000 -0.147000 -0.377000
v 0.052000 -0.159728 -0.389728
v 0.062392 -0.157392 -0.387392
v 0.064728 -0.147000 -0.389728
v 0.064728 -0.159728 -0.377000
v 0.052000 0.065000 -0.377000
v 0.070000 0.047000 -0.377000
v 0.052000 0.047000 -0.395000
v 0.064728 0.059728 -0.377000
v 0.062392 0.057392 -0.387392
v 0.064728 0.047000 -0.389728
v 0.052000 0.059728 -0.389728
vn -0.3251 -0.8881 0.3251
vn -0.3251 -0.3251 0.8881
vn -0.8881 -0.3251 0.3251
vn -0.3251 0.3251 0.8881
vn -0.3251 0.8881 0.3251
vn -0.8881 0.3251 0.3251
vn -0.3251 -0.8881 -0.3251
vn -0.8881 -0.3251 -0.3251
vn -0.3251 -0.3251 -0.8881
vn -0.3251 0.8881 -0.3251
vn -0.3251 0.3251 -0.8881
vn -0.8881 0.3251 -0.3251
vn 0.3251 -0.8881 0.3251
vn 0.8881 -0.3251 0.3251
vn 0.3251 -0.3251 0.8881
vn 0.3251 0.8881 0.3251
vn 0.3251 0.3251 0.8881
vn 0.8881 0.3251 0.3251
vn 0.3251 -0.8881 -0.3251
vn 0.3251 -0.3251 -0.8881
vn 0.8881 -0.3251 -0.3251
vn 0.3251 0.8881 -0.3251
vn 0.8881 0.3251 -0.3251
vn 0.3251 0.3251 -0.8881
vn -0.3827 -0.9239 -0.0000
vn -0.9239 -0.3827 -0.0000
vn -0.3827 -0.0000 0.9239
vn -0.9239 -0.0000 0.3827
vn -0.3827 0.9239 -0.0000
vn -0.9239 0.3827 -0.0000
vn -0.3827 -0.0000 -0.9239
vn -0.9239 -0.0000 -0.3827
vn -0.0000 -0.9239 -0.3827
vn -0.0000 -0.3827 -0.9239
vn -0.0000 0.9239 -0.3827
vn -0.0000 0.3827 -0.9239
vn 0.9239 -0.0000 -0.3827
vn 0.3827 -0.0000 -0.9239
vn 0.3827 -0.9239 -0.0000
vn 0.9239 -0.3827 -0.0000
vn 0.3827 0.9239 -0.0000
vn 0.9239 0.3827 -0.0000
vn 0.3827 -0.0000 0.9239
vn 0.9239 -0.0000 0.3827
vn -0.0000 -0.9239 0.3827
vn -0.0000 -0.3827 0.9239
vn -0.0000 0.9239 0.3827
vn -0.0000 0.3827 0.9239
vn -0.0000 -1.0000 -0.0000
vn -1.0000 -0.0000 -0.0000
vn -0.0000 -0.0000 1.0000
vn -0.0000 1.0000 -0.0000
vn -0.0000 -0.0000 -1.0000
vn 1.0000 -0.0000 -0.0000
vn 0.3251 -0.4929 0.8071
vn 0.3251 -0.9346 0.1446
vn 0.8881 -0.3825 0.2550
vn 0.3251 -0.8071 -0.4929
vn 0.3250 -0.1446 -0.9346
vn 0.8881 -0.2550 -0.3825
vn 0.3251 0.1446 0.9346
vn 0.8881 0.2550 0.3825
vn 0.3251 0.8071 0.4929
vn 0.3251 0.4929 -0.8071
vn 0.3251 0.9346 -0.1446
vn 0.8881 0.3825 -0.2550
vn -0.3251 -0.4929 0.8071
vn -0.8881 -0.3825 0.2550
vn -0.3251 -0.9346 0.1446
vn -0.3251 -0.1446 -0.9346
vn -0.3251 -0.1445 -0.9346
vn -0.3251 -0.8071 -0.4929
vn -0.8881 -0.2550 -0.3825
vn -0.3251 0.1446 0.9346
vn -0.3251 0.8071 0.4929
vn -0.8881 0.2550 0.3825
vn -0.3251 0.4929 -0.8071
vn -0.8881 0.3825 -0.2550
vn -0.3251 0.9346 -0.1446
vn 0.3827 -0.1812 0.9059
vn 0.9239 -0.0751 0.3753
vn 0.3827 -0.9059 -0.1812
vn 0.9239 -0.3753 -0.0751
vn 0.3827 0.1812 -0.9059
vn 0.9239 0.0750 -0.3753
vn 0.3827 0.9059 0.1812
vn 0.9239 0.3753 0.0750
vn -0.0000 0.1941 0.9810
vn -0.0000 0.8309 0.5564
vn -0.0000 0.5564 -0.8309
vn -0.0000 0.9810 -0.1941
vn -0.9239 0.3753 0.0750
vn -0.3827 0.9059 0.1812
vn -0.3827 -0.1812 0.9059
vn -0.9239 -0.0751 0.3753
vn -0.3827 0.1812 -0.9059
vn -0.9239 0.0751 -0.3753
vn -0.3827 -0.9059 -0.1812
vn -0.9239 -0.3753 -0.0751
vn -0.0000 -0.5564 0.8309
vn -0.0000 -0.9810 0.1941
vn -0.0000 -0.1941 -0.9810
vn -0.0000 -0.8309 -0.5564
vn -0.0000 -0.1961 0.9806
vn -0.0000 -0.9806 -0.1961
vn -0.0000 0.1961 -0.9806
vn -0.0000 0.9806 0.1961
vn 0.3250 -0.3251 -0.8881
vn 0.3250 0.3251 -0.8881
vn 0.8881 0.3251 -0.3250
vn 0.3250 -0.8881 0.3251
vn 0.3251 -0.3250 0.8881
vn 0.3250 0.3251 0.8881
vn 0.8881 0.3251 0.3250
vn -0.3250 -0.8881 -0.3251
vn -0.8881 -0.3251 -0.3250
vn -0.3250 0.3251 -0.8881
vn -0.8881 0.3251 -0.3250
vn -0.3250 -0.3251 0.8881
vn -0.8881 -0.3251 0.3250
vn -0.3251 0.3250 0.8881
vn -0.3251 -0.8881 0.3250
vn -0.8881 0.3251 0.3250
vn 0.3251 -0.8881 -0.3250
vn 0.3250 0.8881 -0.3251
vn -0.3251 -0.3250 -0.8881
vn -0.3251 0.8881 -0.3250
vn -0.3251 -0.3250 0.8881
vn -0.8881 -0.3250 0.3251
vn -0.0000 -0.3826 -0.9239
vn 0.8881 0.3250 0.3251
vn 0.8881 -0.3250 -0.3251
vn 0.8881 -0.3250 0.3251
vn 0.3251 0.8881 0.3250
vn -0.3250 -0.3251 -0.8881
vn -0.8881 0.3250 -0.3251
vn -0.3250 0.8881 0.3251
vn -0.8881 0.3250 0.3251
vn -0.0000 -0.3826 0.9239
vn -0.4645 -0.3701 -0.8045
vn -0.9290 -0.3701 -0.0000
vn -0.4645 -0.3701 0.8045
vn 0.4645 -0.3701 0.8045
vn 0.9290 -0.3701 -0.0000
vn 0.4645 -0.3701 -0.8045
vn 0.3251 -0.1446 -0.9346
vn -0.3250 -0.1446 -0.9346
vn 0.9239 0.0751 -0.3753
vn 0.9239 0.3752 0.0750
vn -0.9239 0.3753 0.0751
vn -0.9239 0.0751 -0.3752
vn 0.8881 -0.3251 -0.3250
vn 0.8881 -0.3251 0.3250
vn 0.3250 -0.3251 0.8881
vn 0.3251 0.3250 0.8881
vn -0.3250 0.3251 0.8881
vn -0.3250 -0.8881 0.3251
vn 0.3250 -0.8881 -0.3251
vn 0.3251 -0.3250 -0.8881
vn 0.3251 0.8881 -0.3250
vn 0.3251 -0.8881 0.3250
vn -0.3251 -0.8881 -0.3250
vn -0.3250 0.8881 -0.3251
vn -0.0000 0.3826 -0.9239
vn 0.3251 0.3250 -0.8881
vn 0.8881 0.3250 -0.3251
vn 0.3250 0.8881 0.3251
vn -0.8881 -0.3250 -0.3251
vn -0.3251 0.8881 0.3250
vn -0.3251 0.3250 -0.8881
vt 0.461333 0.364667
vt 0.456715 0.360048
vt 0.455676 0.364667
vt 0.461333 0.444332
vt 0.456715 0.439713
vt 0.461333 0.438675
vt 0.364667 0.444332
vt 0.360048 0.439713
vt 0.359010 0.444332
vt 0.461333 0.628332
vt 0.456715 0.632951
vt 0.455676 0.628332
vt 0.461333 0.359010
vt 0.364667 0.628332
vt 0.360048 0.632951
vt 0.364667 0.633989
vt 0.461333 0.382000
vt 0.456715 0.386619
vt 0.461333 0.387657
vt 0.382000 0.444332
vt 0.386619 0.439713
vt 0.382000 0.438675
vt 0.455676 0.444332
vt 0.455676 0.382000
vt 0.461333 0.633989
vt 0.382000 0.628332
vt 0.386619 0.632951
vt 0.387657 0.628332
vt 0.538667 0.364667
vt 0.543285 0.360048
vt 0.538667 0.359010
vt 0.364667 0.438675
vt 0.538667 0.444332
vt 0.543285 0.439713
vt 0.544324 0.444332
vt 0.544324 0.364667
vt 0.538667 0.628332
vt 0.543285 0.632951
vt 0.538667 0.633989
vt 0.359010 0.628332
vt 0.538667 0.382000
vt 0.543285 0.386619
vt 0.544324 0.382000
vt 0.538667 0.438675
vt 0.387657 0.444332
vt 0.538667 0.387657
vt 0.382000 0.633989
vt 0.544324 0.628332
vt 0.511400 0.591820
vt 0.513478 0.590080
vt 0.513946 0.592027
vt 0.511400 0.389805
vt 0.513478 0.387469
vt 0.511400 0.387102
vt 0.389099 0.592526
vt 0.387469 0.590080
vt 0.389598 0.590030
vt 0.511400 0.582745
vt 0.513478 0.584485
vt 0.513946 0.582538
vt 0.511400 0.631820
vt 0.513478 0.629484
vt 0.511400 0.629117
vt 0.582039 0.631114
vt 0.584485 0.629484
vt 0.584535 0.631613
vt 0.511400 0.614177
vt 0.513478 0.616514
vt 0.511400 0.616880
vt 0.384628 0.614883
vt 0.382182 0.616514
vt 0.382132 0.614384
vt 0.511400 0.383922
vt 0.513478 0.382182
vt 0.513946 0.384128
vt 0.511400 0.654177
vt 0.513478 0.655917
vt 0.513946 0.653970
vt 0.511400 0.576862
vt 0.513478 0.579198
vt 0.511400 0.579564
vt 0.577568 0.653471
vt 0.579198 0.655917
vt 0.577068 0.655967
vt 0.488600 0.591820
vt 0.486522 0.590080
vt 0.488600 0.589531
vt 0.386603 0.592027
vt 0.488600 0.389805
vt 0.486522 0.387469
vt 0.486054 0.389598
vt 0.488600 0.631820
vt 0.486522 0.629484
vt 0.486054 0.631613
vt 0.488600 0.582745
vt 0.486522 0.584485
vt 0.488600 0.585034
vt 0.582538 0.628618
vt 0.488600 0.614177
vt 0.486522 0.616514
vt 0.486054 0.614384
vt 0.488600 0.383922
vt 0.486522 0.382182
vt 0.488600 0.381632
vt 0.384628 0.614883
vt 0.384128 0.617379
vt 0.488600 0.654177
vt 0.486522 0.655917
vt 0.488600 0.656467
vt 0.580064 0.653970
vt 0.488600 0.576862
vt 0.486522 0.579198
vt 0.486054 0.577068
vt 0.513946 0.614384
vt 0.513946 0.389598
vt 0.513946 0.631613
vt 0.513946 0.577068
vt 0.488600 0.616880
vt 0.511400 0.381632
vt 0.511400 0.656467
vt 0.488600 0.579564
vt 0.486054 0.384128
vt 0.486054 0.592027
vt 0.486054 0.653970
vt 0.486054 0.582538
vt 0.511400 0.589531
vt 0.488600 0.387102
vt 0.488600 0.629117
vt 0.511400 0.585034
vt 0.442747 0.589413
vt 0.443855 0.590522
vt 0.444104 0.589413
vt 0.442747 0.404919
vt 0.443855 0.403810
vt 0.442747 0.403561
vt 0.589413 0.404919
vt 0.590522 0.403810
vt 0.590771 0.404919
vt 0.442747 0.601079
vt 0.443855 0.602187
vt 0.444104 0.601079
vt 0.442747 0.590771
vt 0.589413 0.601079
vt 0.590522 0.602187
vt 0.589413 0.602436
vt 0.442747 0.577253
vt 0.443855 0.576145
vt 0.442747 0.575896
vt 0.577253 0.404919
vt 0.576145 0.403810
vt 0.577253 0.403561
vt 0.444104 0.404919
vt 0.444104 0.577253
vt 0.442747 0.602436
vt 0.577253 0.601079
vt 0.576145 0.602187
vt 0.575896 0.601079
vt 0.430587 0.589413
vt 0.429478 0.590522
vt 0.430587 0.590771
vt 0.589413 0.403561
vt 0.430587 0.404919
vt 0.429478 0.403810
vt 0.429229 0.404919
vt 0.429229 0.589413
vt 0.430587 0.601079
vt 0.429478 0.602187
vt 0.430587 0.602436
vt 0.590771 0.601079
vt 0.430587 0.577253
vt 0.429478 0.576145
vt 0.429229 0.577253
vt 0.430587 0.403561
vt 0.575896 0.404919
vt 0.430587 0.575896
vt 0.577253 0.602436
vt 0.429229 0.601079
vt 0.569413 0.589413
vt 0.570522 0.590522
vt 0.570771 0.589413
vt 0.569413 0.404919
vt 0.570522 0.403810
vt 0.569413 0.403561
vt 0.569413 0.601079
vt 0.570522 0.602187
vt 0.570771 0.601079
vt 0.569413 0.590771
vt 0.569413 0.577253
vt 0.570522 0.576145
vt 0.569413 0.575896
vt 0.570771 0.404919
vt 0.570771 0.577253
vt 0.569413 0.602436
vt 0.557253 0.589413
vt 0.556145 0.590522
vt 0.557253 0.590771
vt 0.557253 0.404919
vt 0.556145 0.403810
vt 0.555896 0.404919
vt 0.555896 0.589413
vt 0.557253 0.601079
vt 0.556145 0.602187
vt 0.557253 0.602436
vt 0.557253 0.577253
vt 0.556145 0.576145
vt 0.555896 0.577253
vt 0.557253 0.403561
vt 0.557253 0.575896
vt 0.555896 0.601079
vt 0.441733 0.545067
vt 0.442657 0.545990
vt 0.442865 0.545067
vt 0.441733 0.404599
vt 0.442657 0.403675
vt 0.441733 0.403467
vt 0.545067 0.404599
vt 0.545990 0.403675
vt 0.546198 0.404599
vt 0.441733 0.601399
vt 0.442657 0.602322
vt 0.442865 0.601399
vt 0.441733 0.546198
vt 0.545067 0.601399
vt 0.545990 0.602322
vt 0.545067 0.602530
vt 0.441733 0.534933
vt 0.442657 0.534010
vt 0.441733 0.533802
vt 0.534933 0.404599
vt 0.534010 0.403675
vt 0.534933 0.403467
vt 0.442865 0.404599
vt 0.442865 0.534933
vt 0.441733 0.602530
vt 0.534933 0.601399
vt 0.534010 0.602322
vt 0.533802 0.601399
vt 0.431600 0.545067
vt 0.430676 0.545990
vt 0.431600 0.546198
vt 0.545067 0.403467
vt 0.431600 0.404599
vt 0.430676 0.403675
vt 0.430469 0.404599
vt 0.430469 0.545067
vt 0.431600 0.601399
vt 0.430676 0.602322
vt 0.431600 0.602530
vt 0.546198 0.601399
vt 0.431600 0.534933
vt 0.430676 0.534010
vt 0.430469 0.534933
vt 0.431600 0.403467
vt 0.533802 0.404599
vt 0.431600 0.533802
vt 0.534933 0.602530
vt 0.430469 0.601399
vt 0.568400 0.545067
vt 0.569324 0.545990
vt 0.569531 0.545067
vt 0.568400 0.404599
vt 0.569324 0.403675
vt 0.568400 0.403467
vt 0.568400 0.601399
vt 0.569324 0.602322
vt 0.569531 0.601399
vt 0.568400 0.546198
vt 0.568400 0.534933
vt 0.569324 0.534010
vt 0.568400 0.533802
vt 0.569531 0.404599
vt 0.569531 0.534933
vt 0.568400 0.602530
vt 0.558267 0.545067
vt 0.557343 0.545990
vt 0.558267 0.546198
vt 0.558267 0.404599
vt 0.557343 0.403675
vt 0.557135 0.404599
vt 0.557135 0.545067
vt 0.558267 0.601399
vt 0.557343 0.602322
vt 0.558267 0.602530
vt 0.558267 0.534933
vt 0.557343 0.534010
vt 0.557135 0.534933
vt 0.558267 0.403467
vt 0.558267 0.533802
vt 0.557135 0.601399
vt 0.441733 0.631733
vt 0.442657 0.632657
vt 0.442865 0.631733
vt 0.631733 0.404599
vt 0.632657 0.403675
vt 0.632865 0.404599
vt 0.441733 0.632865
vt 0.631733 0.601399
vt 0.632657 0.602322
vt 0.631733 0.602530
vt 0.441733 0.621600
vt 0.442657 0.620676
vt 0.441733 0.620469
vt 0.621600 0.404599
vt 0.620676 0.403675
vt 0.621600 0.403467
vt 0.442865 0.621600
vt 0.621600 0.601399
vt 0.620676 0.602322
vt 0.620469 0.601399
vt 0.431600 0.631733
vt 0.430676 0.632657
vt 0.431600 0.632865
vt 0.631733 0.403467
vt 0.430469 0.631733
vt 0.632865 0.601399
vt 0.431600 0.621600
vt 0.430676 0.620676
vt 0.430469 0.621600
vt 0.620469 0.404599
vt 0.431600 0.620469
vt 0.621600 0.602530
vt 0.568400 0.631733
vt 0.569324 0.632657
vt 0.569531 0.631733
vt 0.568400 0.632865
vt 0.568400 0.621600
vt 0.569324 0.620676
vt 0.568400 0.620469
vt 0.569531 0.621600
vt 0.558267 0.631733
vt 0.557343 0.632657
vt 0.558267 0.632865
vt 0.557135 0.631733
vt 0.558267 0.621600
vt 0.557343 0.620676
vt 0.557135 0.621600
vt 0.558267 0.620469
vt 0.430000 0.533333
vt 0.424226 0.527560
vt 0.422929 0.533333
vt 0.430000 0.612999
vt 0.424226 0.607225
vt 0.430000 0.605928
vt 0.533333 0.612999
vt 0.527560 0.607225
vt 0.526262 0.612999
vt 0.430000 0.632999
vt 0.424226 0.638772
vt 0.422929 0.632999
vt 0.430000 0.526262
vt 0.533333 0.632999
vt 0.527560 0.638772
vt 0.533333 0.640070
vt 0.430000 0.633333
vt 0.424226 0.639107
vt 0.430000 0.640404
vt 0.633333 0.612999
vt 0.639107 0.607225
vt 0.633333 0.605928
vt 0.422929 0.612999
vt 0.422929 0.633333
vt 0.430000 0.640070
vt 0.633333 0.632999
vt 0.639107 0.638772
vt 0.640404 0.632999
vt 0.570000 0.533333
vt 0.575773 0.527560
vt 0.570000 0.526262
vt 0.533333 0.605928
vt 0.570000 0.612999
vt 0.575773 0.607225
vt 0.577071 0.612999
vt 0.577071 0.533333
vt 0.570000 0.632999
vt 0.575773 0.638772
vt 0.570000 0.640070
vt 0.526262 0.632999
vt 0.570000 0.633333
vt 0.575773 0.639107
vt 0.577071 0.633333
vt 0.570000 0.605928
vt 0.640404 0.612999
vt 0.570000 0.640404
vt 0.633333 0.640070
vt 0.577071 0.632999
vt 0.500000 0.342999
vt 0.474019 0.402999
vt 0.500000 0.402999
vt 0.598333 0.402999
vt 0.582133 0.342999
vt 0.568333 0.402999
vt 0.497922 0.342999
vt 0.502078 0.342999
vt 0.525981 0.402999
vt 0.502078 0.582133
vt 0.500000 0.580933
vt 0.497922 0.582133
vt 0.474019 0.598333
vt 0.500000 0.553333
vt 0.525981 0.598333
vt 0.465333 0.558667
vt 0.458405 0.551738
vt 0.456848 0.558667
vt 0.465333 0.438332
vt 0.458405 0.431404
vt 0.465333 0.429847
vt 0.558667 0.438332
vt 0.551738 0.431404
vt 0.550181 0.438332
vt 0.465333 0.567665
vt 0.458405 0.574594
vt 0.456848 0.567665
vt 0.465333 0.550181
vt 0.558667 0.567665
vt 0.551738 0.574594
vt 0.558667 0.576151
vt 0.465333 0.608000
vt 0.458405 0.614928
vt 0.465333 0.616485
vt 0.608000 0.438332
vt 0.614928 0.431404
vt 0.608000 0.429847
vt 0.456848 0.438332
vt 0.456848 0.608000
vt 0.465333 0.576151
vt 0.608000 0.567665
vt 0.614928 0.574594
vt 0.616485 0.567665
vt 0.534667 0.558667
vt 0.541595 0.551738
vt 0.534667 0.550181
vt 0.558667 0.429847
vt 0.534667 0.438332
vt 0.541595 0.431404
vt 0.543152 0.438332
vt 0.543152 0.558667
vt 0.534667 0.567665
vt 0.541595 0.574594
vt 0.534667 0.576151
vt 0.550181 0.567665
vt 0.534667 0.608000
vt 0.541595 0.614928
vt 0.543152 0.608000
vt 0.534667 0.429847
vt 0.616485 0.438332
vt 0.534667 0.616485
vt 0.608000 0.576151
vt 0.543152 0.567665
vt 0.584533 0.342999
vt 0.497922 0.584533
vt 0.500000 0.585733
vt 0.502078 0.584533
vt 0.500000 0.613333
vt 0.474019 0.568333
vt 0.525981 0.568333
s 0
usemtl M_AgedIron
f 1/1/1 5/2/1 7/3/1
f 2/4/2 5/5/2 4/6/2
f 3/7/3 5/8/3 6/9/3
f 8/10/4 12/11/4 14/12/4
f 9/1/5 12/2/5 11/13/5
f 10/14/6 12/15/6 13/16/6
f 15/17/7 19/18/7 21/19/7
f 16/20/8 19/21/8 18/22/8
f 17/4/9 19/5/9 20/23/9
f 22/17/10 26/18/10 28/24/10
f 23/10/11 26/11/11 25/25/11
f 24/26/12 26/27/12 27/28/12
f 29/29/13 33/30/13 35/31/13
f 30/7/14 33/8/14 32/32/14
f 31/33/15 33/34/15 34/35/15
f 36/29/16 40/30/16 42/36/16
f 37/37/17 40/38/17 39/39/17
f 38/14/18 40/15/18 41/40/18
f 43/41/19 47/42/19 49/43/19
f 44/33/20 47/34/20 46/44/20
f 45/20/21 47/21/21 48/45/21
f 50/41/22 54/42/22 56/46/22
f 51/26/23 54/27/23 53/47/23
f 52/37/24 54/38/24 55/48/24
f 1/1/25 18/24/25 15/17/25
f 18/22/26 3/7/26 16/20/26
f 8/10/27 6/23/27 2/4/27
f 14/40/28 3/7/28 6/9/28
f 9/1/29 28/24/29 13/3/29
f 28/47/30 10/14/30 13/16/30
f 17/4/31 27/12/31 23/10/31
f 20/45/32 24/26/32 27/28/32
f 15/17/33 46/46/33 43/41/33
f 21/6/34 44/33/34 46/44/34
f 50/41/35 25/19/35 22/17/35
f 56/39/36 23/10/36 25/25/36
f 45/20/37 55/28/37 51/26/37
f 48/35/38 52/37/38 55/48/38
f 43/41/39 32/36/39 29/29/39
f 49/22/40 30/7/40 32/32/40
f 36/29/41 53/43/41 50/41/41
f 53/47/42 38/14/42 51/26/42
f 31/33/43 41/48/43 37/37/43
f 34/9/44 38/14/44 41/40/44
f 29/29/45 4/13/45 1/1/45
f 35/44/46 2/4/46 4/6/46
f 9/1/47 39/31/47 36/29/47
f 11/25/48 37/37/48 39/39/48
f 43/41/49 1/1/49 15/17/49
f 10/14/50 16/20/50 3/7/50
f 37/37/51 2/4/51 31/33/51
f 22/17/52 36/29/52 50/41/52
f 23/10/53 44/33/53 17/4/53
f 51/26/54 30/7/54 45/20/54
f 57/49/55 61/50/55 63/51/55
f 58/52/56 61/53/56 60/54/56
f 59/55/57 61/56/57 62/57/57
f 64/58/58 68/59/58 70/60/58
f 65/61/59 68/62/59 67/63/59
f 66/64/60 68/65/60 69/66/60
f 71/67/61 75/68/61 77/69/61
f 72/70/62 75/71/62 74/72/62
f 73/73/63 75/74/63 76/75/63
f 78/76/64 82/77/64 84/78/64
f 79/79/65 82/80/65 81/81/65
f 80/82/66 82/83/66 83/84/66
f 85/85/67 89/86/67 91/87/67
f 86/55/68 89/56/68 88/88/68
f 87/89/69 89/90/69 90/91/69
f 92/92/70 96/93/71 98/94/70
f 93/95/72 96/96/72 95/97/72
f 94/64/73 96/65/73 97/98/73
f 99/99/74 103/100/74 105/101/74
f 100/102/75 103/103/75 102/104/75
f 101/105/76 103/71/76 104/106/76
f 106/107/77 110/108/77 112/109/77
f 107/82/78 110/83/78 109/110/78
f 108/111/79 110/112/79 111/113/79
f 57/49/80 74/114/80 71/67/80
f 63/88/81 72/70/81 74/72/81
f 58/52/82 70/60/82 62/115/82
f 62/57/83 66/64/83 59/55/83
f 78/76/84 69/116/84 65/61/84
f 69/66/85 80/82/85 66/64/85
f 79/79/86 76/75/86 83/117/86
f 83/84/87 72/70/87 80/82/87
f 99/99/88 77/69/88 102/118/88
f 77/119/89 100/102/89 102/104/89
f 78/76/90 112/109/90 81/120/90
f 112/121/91 79/79/91 81/81/91
f 107/82/92 104/106/92 111/84/92
f 104/122/93 108/111/93 111/113/93
f 85/85/94 105/101/94 88/123/94
f 105/72/95 86/55/95 88/88/95
f 106/107/96 98/94/96 109/124/96
f 109/110/97 94/64/97 107/82/97
f 87/89/98 97/125/98 93/95/98
f 90/57/99 94/64/99 97/98/99
f 57/49/100 91/87/100 60/126/100
f 91/127/101 58/52/101 60/54/101
f 65/61/102 95/128/102 92/92/102
f 67/129/103 93/95/103 95/97/103
f 99/99/104 57/49/104 71/67/104
f 66/64/54 72/70/54 59/55/54
f 93/95/105 58/52/105 87/89/105
f 106/107/106 65/61/106 92/92/106
f 79/79/107 100/102/107 73/73/107
f 107/82/50 86/55/50 101/105/50
f 113/130/19 117/131/19 119/132/19
f 114/133/20 117/134/108 116/135/20
f 115/136/21 117/137/21 118/138/21
f 120/139/109 124/140/109 126/141/24
f 121/130/22 124/131/22 123/142/22
f 122/143/110 124/144/110 125/145/110
f 127/146/13 131/147/111 133/148/13
f 128/149/14 131/150/14 130/151/14
f 129/133/112 131/134/112 132/152/112
f 134/146/16 138/147/16 140/153/16
f 135/139/113 138/140/113 137/154/113
f 136/155/114 138/156/114 139/157/114
f 141/158/7 145/159/115 147/160/7
f 142/136/116 145/137/8 144/161/8
f 143/162/9 145/163/9 146/164/9
f 148/158/10 152/159/10 154/165/10
f 149/166/117 152/167/117 151/168/117
f 150/143/12 152/144/118 153/169/12
f 155/170/1 159/171/1 161/172/1
f 156/162/119 159/163/119 158/173/119
f 157/149/120 159/150/3 160/174/3
f 162/170/5 166/171/5 168/175/5
f 163/155/6 166/156/6 165/176/6
f 164/166/121 166/167/121 167/177/121
f 113/130/39 130/153/39 127/146/39
f 119/161/40 128/149/40 130/151/40
f 120/139/38 118/152/38 114/133/38
f 126/169/37 115/136/37 118/138/37
f 134/146/41 125/132/41 121/130/41
f 140/176/42 122/143/42 125/145/42
f 129/133/43 139/141/43 135/139/43
f 132/174/44 136/155/44 139/157/44
f 127/146/45 158/175/45 155/170/45
f 133/135/46 156/162/46 158/173/46
f 162/170/47 137/148/47 134/146/47
f 168/168/48 135/139/48 137/154/48
f 157/149/28 167/157/28 163/155/28
f 160/164/27 164/166/27 167/177/27
f 155/170/25 144/165/25 141/158/25
f 161/151/26 142/136/26 144/161/26
f 148/158/29 165/172/29 162/170/29
f 154/145/30 163/155/30 165/176/30
f 143/162/31 153/177/31 149/166/31
f 146/138/32 150/143/32 153/169/32
f 141/158/33 116/142/33 113/130/33
f 147/173/34 114/133/34 116/135/34
f 121/130/35 151/160/35 148/158/35
f 123/154/36 149/166/36 151/168/36
f 155/170/49 113/130/49 127/146/49
f 122/143/54 128/149/54 115/136/54
f 149/166/53 114/133/53 143/162/53
f 134/146/52 148/158/52 162/170/52
f 135/139/51 156/162/51 129/133/51
f 163/155/50 142/136/50 157/149/50
f 169/178/19 173/179/19 175/180/19
f 170/181/20 173/182/20 172/183/20
f 171/136/21 173/137/21 174/138/21
f 176/184/24 180/185/24 182/186/24
f 177/178/22 180/179/22 179/187/22
f 178/143/110 180/144/23 181/145/23
f 183/188/13 187/189/111 189/190/13
f 184/149/14 187/150/14 186/151/14
f 185/181/112 187/182/112 188/191/112
f 190/188/16 194/189/16 196/192/16
f 191/184/113 194/185/113 193/193/113
f 192/155/114 194/156/114 195/157/114
f 197/194/7 201/195/115 203/196/7
f 198/136/116 201/137/116 200/161/116
f 199/197/9 201/198/9 202/199/9
f 204/194/10 208/195/10 210/200/10
f 205/201/117 208/202/117 207/203/117
f 206/143/118 208/144/118 209/169/12
f 211/204/122 215/205/1 217/206/1
f 212/197/119 215/198/119 214/207/119
f 213/149/120 215/150/120 216/174/120
f 218/204/5 222/205/5 224/208/5
f 219/155/6 222/156/123 221/176/6
f 220/201/121 222/202/121 223/209/121
f 169/178/39 186/192/39 183/188/39
f 175/161/40 184/149/40 186/151/40
f 176/184/38 174/191/38 170/181/38
f 182/169/37 171/136/37 174/138/37
f 190/188/41 181/180/41 177/178/41
f 196/176/42 178/143/42 181/145/42
f 185/181/43 195/186/43 191/184/43
f 188/174/44 192/155/44 195/157/44
f 183/188/45 214/208/45 211/204/45
f 189/183/46 212/197/46 214/207/46
f 218/204/47 193/190/47 190/188/47
f 224/203/48 191/184/48 193/193/48
f 213/149/28 223/157/28 219/155/28
f 216/199/27 220/201/27 223/209/27
f 211/204/25 200/200/25 197/194/25
f 217/151/26 198/136/26 200/161/26
f 204/194/29 221/206/29 218/204/29
f 210/145/30 219/155/30 221/176/30
f 199/197/31 209/209/31 205/201/31
f 202/138/32 206/143/32 209/169/32
f 197/194/33 172/187/33 169/178/33
f 203/207/34 170/181/34 172/183/34
f 177/178/35 207/196/35 204/194/35
f 179/193/36 205/201/36 207/203/36
f 211/204/49 169/178/49 183/188/49
f 178/143/54 184/149/54 171/136/54
f 205/201/53 170/181/53 199/197/53
f 190/188/52 204/194/52 218/204/52
f 191/184/51 212/197/51 185/181/51
f 219/155/50 198/136/50 213/149/50
f 225/210/124 229/211/124 231/212/124
f 226/213/108 229/214/108 228/215/108
f 227/216/21 229/217/21 230/218/21
f 232/219/109 236/220/109 238/221/109
f 233/210/125 236/211/125 235/222/125
f 234/223/23 236/224/23 237/225/23
f 239/226/13 243/227/13 245/228/13
f 240/229/14 243/230/14 242/231/14
f 241/213/112 243/214/112 244/232/112
f 246/226/16 250/227/16 252/233/16
f 247/219/17 250/220/17 249/234/17
f 248/235/18 250/236/18 251/237/18
f 253/238/115 257/239/115 259/240/115
f 254/216/8 257/217/8 256/241/8
f 255/242/126 257/243/126 258/244/126
f 260/238/127 264/239/10 266/245/10
f 261/246/117 264/247/117 263/248/117
f 262/223/12 264/224/12 265/249/12
f 267/250/1 271/251/122 273/252/1
f 268/242/2 271/243/128 270/253/2
f 269/229/129 271/230/129 272/254/129
f 274/250/5 278/251/5 280/255/5
f 275/235/6 278/236/6 277/256/6
f 276/246/121 278/247/121 279/257/121
f 225/210/39 242/233/39 239/226/39
f 231/241/40 240/229/40 242/231/40
f 232/219/38 230/232/38 226/213/38
f 238/249/37 227/216/37 230/218/37
f 246/226/41 237/212/41 233/210/41
f 252/256/42 234/223/42 237/225/42
f 241/213/43 251/221/43 247/219/43
f 244/254/44 248/235/44 251/237/44
f 239/226/45 270/255/45 267/250/45
f 270/253/46 241/213/46 268/242/46
f 274/250/47 249/228/47 246/226/47
f 280/248/48 247/219/48 249/234/48
f 269/229/28 279/237/28 275/235/28
f 272/244/27 276/246/27 279/257/27
f 267/250/25 256/245/25 253/238/25
f 273/231/26 254/216/26 256/241/26
f 260/238/29 277/252/29 274/250/29
f 266/225/30 275/235/30 277/256/30
f 255/242/31 265/257/31 261/246/31
f 258/218/32 262/223/32 265/249/32
f 253/238/33 228/222/33 225/210/33
f 228/215/130 255/242/130 226/213/130
f 260/238/35 235/222/35 263/240/35
f 235/234/36 261/246/36 263/248/36
f 267/250/49 225/210/49 239/226/49
f 234/223/54 240/229/54 227/216/54
f 261/246/53 226/213/53 255/242/53
f 246/226/52 260/238/52 274/250/52
f 247/219/51 268/242/51 241/213/51
f 275/235/50 254/216/50 269/229/50
f 281/258/124 285/259/124 287/260/124
f 282/261/108 285/262/108 284/263/108
f 283/216/21 285/217/21 286/218/21
f 288/264/109 292/265/109 294/266/109
f 289/258/125 292/259/125 291/267/125
f 290/223/23 292/224/23 293/225/23
f 295/268/13 299/269/13 301/270/13
f 296/229/14 299/230/14 298/231/14
f 297/261/112 299/262/112 300/271/112
f 302/268/16 306/269/16 308/272/16
f 303/264/17 306/265/17 305/273/17
f 304/235/131 306/236/131 307/237/131
f 309/274/115 313/275/115 315/276/115
f 310/216/8 313/217/8 312/241/8
f 311/277/126 313/278/126 314/279/126
f 316/274/127 320/275/127 322/280/10
f 317/281/117 320/282/117 319/283/117
f 318/223/12 320/224/12 321/249/12
f 323/284/1 327/285/1 329/286/1
f 324/277/2 327/278/128 326/287/2
f 325/229/3 327/230/3 328/254/3
f 330/284/5 334/285/5 336/288/5
f 331/235/6 334/236/6 333/256/6
f 332/281/121 334/282/121 335/289/121
f 281/258/39 298/272/39 295/268/39
f 287/241/40 296/229/40 298/231/40
f 288/264/38 286/271/38 282/261/38
f 294/249/37 283/216/37 286/218/37
f 302/268/41 293/260/41 289/258/41
f 308/256/42 290/223/42 293/225/42
f 297/261/43 307/266/43 303/264/43
f 300/254/44 304/235/44 307/237/44
f 295/268/45 326/288/45 323/284/45
f 326/287/46 297/261/46 324/277/46
f 330/284/47 305/270/47 302/268/47
f 336/283/48 303/264/48 305/273/48
f 325/229/28 335/237/28 331/235/28
f 328/279/27 332/281/27 335/289/27
f 323/284/25 312/280/25 309/274/25
f 329/231/26 310/216/26 312/241/26
f 316/274/29 333/286/29 330/284/29
f 322/225/30 331/235/30 333/256/30
f 311/277/31 321/289/31 317/281/31
f 314/218/32 318/223/32 321/249/32
f 309/274/33 284/267/33 281/258/33
f 284/263/130 311/277/130 282/261/130
f 316/274/35 291/267/35 319/276/35
f 291/273/36 317/281/36 319/283/36
f 323/284/49 281/258/49 295/268/49
f 290/223/54 296/229/54 283/216/54
f 317/281/53 282/261/53 311/277/53
f 302/268/52 316/274/52 330/284/52
f 303/264/51 324/277/51 297/261/51
f 331/235/50 310/216/50 325/229/50
f 337/290/124 341/291/124 343/292/124
f 338/213/20 341/214/20 340/215/20
f 339/293/132 341/294/132 342/295/132
f 344/219/24 348/220/24 350/221/24
f 345/290/125 348/291/125 347/296/125
f 346/297/110 348/298/110 349/299/110
f 351/300/111 355/301/111 357/302/111
f 352/303/133 355/304/133 354/305/133
f 353/213/112 355/214/112 356/232/112
f 358/300/16 362/301/134 364/306/134
f 359/219/113 362/220/113 361/234/113
f 360/307/18 362/308/131 363/309/18
f 365/310/115 369/311/115 371/312/115
f 366/293/116 369/294/116 368/313/116
f 367/242/135 369/243/9 370/244/9
f 372/310/10 376/311/10 378/314/10
f 373/246/11 376/247/117 375/248/11
f 374/297/136 376/298/136 377/315/136
f 379/316/122 383/317/122 385/318/122
f 380/242/119 383/243/119 382/253/119
f 381/303/3 383/304/3 384/319/3
f 386/316/137 390/317/137 392/320/137
f 387/307/138 390/308/138 389/321/138
f 388/246/121 390/247/121 391/257/121
f 337/290/39 354/306/39 351/300/39
f 343/313/40 352/303/40 354/305/40
f 344/219/38 342/232/38 338/213/38
f 350/315/37 339/293/37 342/295/37
f 358/300/41 349/292/41 345/290/41
f 364/321/42 346/297/42 349/299/42
f 353/213/43 363/221/43 359/219/43
f 356/319/44 360/307/44 363/309/44
f 351/300/45 382/320/45 379/316/45
f 382/253/139 353/213/139 380/242/139
f 386/316/47 361/302/47 358/300/47
f 392/248/48 359/219/48 361/234/48
f 381/303/28 391/309/28 387/307/28
f 384/244/27 388/246/27 391/257/27
f 379/316/25 368/314/25 365/310/25
f 385/305/26 366/293/26 368/313/26
f 372/310/29 389/318/29 386/316/29
f 378/299/30 387/307/30 389/321/30
f 367/242/31 377/257/31 373/246/31
f 370/295/32 374/297/32 377/315/32
f 365/310/33 340/296/33 337/290/33
f 340/215/34 367/242/34 338/213/34
f 372/310/35 347/296/35 375/312/35
f 347/234/36 373/246/36 375/248/36
f 379/316/49 337/290/49 351/300/49
f 346/297/54 352/303/54 339/293/54
f 373/246/53 338/213/53 367/242/53
f 358/300/52 372/310/52 386/316/52
f 359/219/51 380/242/51 353/213/51
f 387/307/50 366/293/50 381/303/50
f 393/322/124 397/323/124 399/324/124
f 394/261/20 397/262/20 396/263/20
f 395/293/132 397/294/132 398/295/132
f 400/264/24 404/265/24 406/266/24
f 401/322/125 404/323/125 403/325/22
f 402/297/110 404/298/110 405/299/110
f 407/326/111 411/327/111 413/328/111
f 408/303/133 411/304/133 410/305/133
f 409/261/112 411/262/112 412/271/112
f 414/326/134 418/327/134 420/329/16
f 415/264/113 418/265/113 417/273/113
f 416/307/18 418/308/18 419/309/18
f 421/330/115 425/331/115 427/332/115
f 422/293/116 425/294/116 424/313/116
f 423/277/135 425/278/9 426/279/9
f 428/330/10 432/331/10 434/333/10
f 429/281/11 432/282/117 431/283/11
f 430/297/136 432/298/136 433/315/136
f 435/334/122 439/335/122 441/336/122
f 436/277/119 439/278/119 438/287/119
f 437/303/3 439/304/3 440/319/3
f 442/334/137 446/335/137 448/337/137
f 443/307/138 446/308/138 445/321/138
f 444/281/121 446/282/121 447/289/121
f 393/322/39 410/329/39 407/326/39
f 399/313/40 408/303/40 410/305/40
f 400/264/38 398/271/38 394/261/38
f 406/315/37 395/293/37 398/295/37
f 414/326/41 405/324/41 401/322/41
f 420/321/42 402/297/42 405/299/42
f 409/261/43 419/266/43 415/264/43
f 412/319/44 416/307/44 419/309/44
f 407/326/45 438/337/45 435/334/45
f 438/287/139 409/261/139 436/277/139
f 442/334/47 417/328/47 414/326/47
f 448/283/48 415/264/48 417/273/48
f 437/303/28 447/309/28 443/307/28
f 440/279/27 444/281/27 447/289/27
f 435/334/25 424/333/25 421/330/25
f 441/305/26 422/293/26 424/313/26
f 428/330/29 445/336/29 442/334/29
f 434/299/30 443/307/30 445/321/30
f 423/277/31 433/289/31 429/281/31
f 426/295/32 430/297/32 433/315/32
f 421/330/33 396/325/33 393/322/33
f 396/263/34 423/277/34 394/261/34
f 428/330/35 403/325/35 431/332/35
f 403/273/36 429/281/36 431/283/36
f 435/334/49 393/322/49 407/326/49
f 402/297/54 408/303/54 395/293/54
f 429/281/53 394/261/53 423/277/53
f 414/326/52 428/330/52 442/334/52
f 415/264/51 436/277/51 409/261/51
f 443/307/50 422/293/50 437/303/50
f 449/338/1 453/339/1 455/340/1
f 450/341/2 453/342/2 452/343/2
f 451/344/3 453/345/3 454/346/3
f 456/347/4 460/348/4 462/349/4
f 457/338/5 460/339/5 459/350/5
f 458/351/6 460/352/6 461/353/6
f 463/354/7 467/355/7 469/356/7
f 464/357/8 467/358/8 466/359/8
f 465/341/135 467/342/9 468/360/9
f 470/354/10 474/355/10 476/361/10
f 471/347/117 474/348/117 473/362/117
f 472/363/12 474/364/12 475/365/12
f 477/366/13 481/367/13 483/368/13
f 478/344/14 481/345/14 480/369/14
f 479/370/15 481/371/15 482/372/15
f 484/366/16 488/367/16 490/373/16
f 485/374/17 488/375/17 487/376/17
f 486/351/18 488/352/18 489/377/18
f 491/378/19 495/379/19 497/380/19
f 492/370/108 495/371/108 494/381/108
f 493/357/21 495/358/21 496/382/21
f 498/378/22 502/379/22 504/383/22
f 499/363/23 502/364/23 501/384/23
f 500/374/24 502/375/24 503/385/24
f 449/338/25 466/361/25 463/354/25
f 455/369/26 464/357/26 466/359/26
f 456/347/27 454/360/27 450/341/27
f 462/377/28 451/344/28 454/346/28
f 470/354/29 461/340/29 457/338/29
f 476/384/30 458/351/30 461/353/30
f 465/341/31 475/349/31 471/347/31
f 468/382/32 472/363/32 475/365/32
f 463/354/33 494/383/33 491/378/33
f 469/343/34 492/370/34 494/381/34
f 498/378/35 473/356/35 470/354/35
f 504/376/36 471/347/36 473/362/36
f 493/357/37 503/365/37 499/363/37
f 496/372/38 500/374/38 503/385/38
f 491/378/39 480/373/39 477/366/39
f 497/359/40 478/344/40 480/369/40
f 484/366/41 501/380/41 498/378/41
f 490/353/42 499/363/42 501/384/42
f 479/370/43 489/385/43 485/374/43
f 482/346/44 486/351/44 489/377/44
f 477/366/45 452/350/45 449/338/45
f 483/381/46 450/341/46 452/343/46
f 457/338/47 487/368/47 484/366/47
f 459/362/48 485/374/48 487/376/48
f 491/378/49 449/338/49 463/354/49
f 458/351/50 464/357/50 451/344/50
f 485/374/51 450/341/51 479/370/51
f 470/354/52 484/366/52 498/378/52
f 471/347/53 492/370/53 465/341/53
f 499/363/54 478/344/54 493/357/54
f 506/386/140 507/387/140 505/388/140
f 507/389/141 510/390/141 509/391/141
f 510/392/142 511/388/142 509/387/142
f 511/388/143 514/393/143 513/394/143
f 514/395/49 512/396/49 510/397/49
f 514/390/144 515/389/144 513/391/144
f 516/393/145 505/388/145 515/394/145
f 507/398/52 511/399/52 515/400/52
f 1/1/1 4/13/1 5/2/1
f 2/4/2 6/23/2 5/5/2
f 3/7/3 7/32/3 5/8/3
f 8/10/4 11/25/4 12/11/4
f 9/1/5 13/3/5 12/2/5
f 10/14/6 14/40/6 12/15/6
f 15/17/7 18/24/7 19/18/7
f 16/20/8 20/45/8 19/21/8
f 17/4/9 21/6/9 19/5/9
f 22/17/10 25/19/10 26/18/10
f 23/10/11 27/12/11 26/11/11
f 24/26/12 28/47/12 26/27/12
f 29/29/13 32/36/13 33/30/13
f 30/7/14 34/9/14 33/8/14
f 31/33/15 35/44/15 33/34/15
f 36/29/16 39/31/16 40/30/16
f 37/37/17 41/48/17 40/38/17
f 38/14/18 42/16/18 40/15/18
f 43/41/19 46/46/19 47/42/19
f 44/33/20 48/35/20 47/34/20
f 45/20/21 49/22/21 47/21/21
f 50/41/22 53/43/22 54/42/22
f 51/26/23 55/28/23 54/27/23
f 52/37/24 56/39/24 54/38/24
f 1/1/25 7/3/25 18/24/25
f 18/22/26 7/32/26 3/7/26
f 8/10/27 14/12/27 6/23/27
f 14/40/28 10/14/28 3/7/28
f 9/1/29 22/17/29 28/24/29
f 28/47/30 24/26/30 10/14/30
f 17/4/31 20/23/31 27/12/31
f 20/45/32 16/20/32 24/26/32
f 15/17/33 21/19/33 46/46/33
f 21/6/34 17/4/34 44/33/34
f 50/41/35 56/46/35 25/19/35
f 56/39/36 52/37/36 23/10/36
f 45/20/37 48/45/37 55/28/37
f 48/35/38 44/33/38 52/37/38
f 43/41/39 49/43/39 32/36/39
f 49/22/40 45/20/40 30/7/40
f 36/29/41 42/36/41 53/43/41
f 53/47/42 42/16/42 38/14/42
f 31/33/43 34/35/43 41/48/43
f 34/9/44 30/7/44 38/14/44
f 29/29/45 35/31/45 4/13/45
f 35/44/46 31/33/46 2/4/46
f 9/1/47 11/13/47 39/31/47
f 11/25/48 8/10/48 37/37/48
f 43/41/49 29/29/49 1/1/49
f 10/14/50 24/26/50 16/20/50
f 37/37/51 8/10/51 2/4/51
f 22/17/52 9/1/52 36/29/52
f 23/10/53 52/37/53 44/33/53
f 51/26/54 38/14/54 30/7/54
f 57/49/55 60/126/55 61/50/55
f 58/52/56 62/115/56 61/53/56
f 59/55/57 63/88/57 61/56/57
f 64/58/58 67/129/58 68/59/58
f 65/61/146 69/116/146 68/62/146
f 66/64/60 70/98/60 68/65/60
f 71/67/61 74/114/61 75/68/61
f 72/70/62 76/106/62 75/71/62
f 73/73/63 77/119/63 75/74/63
f 78/76/64 81/120/64 82/77/64
f 79/79/65 83/117/65 82/80/65
f 80/82/66 84/110/66 82/83/66
f 85/85/67 88/123/67 89/86/67
f 86/55/68 90/57/68 89/56/68
f 87/89/69 91/127/69 89/90/69
f 92/92/147 95/128/147 96/93/147
f 93/95/72 97/125/72 96/96/72
f 94/64/73 98/66/73 96/65/73
f 99/99/74 102/118/74 103/100/74
f 100/102/75 104/122/75 103/103/75
f 101/105/76 105/72/76 103/71/76
f 106/107/77 109/124/77 110/108/77
f 107/82/78 111/84/78 110/83/78
f 108/111/79 112/121/79 110/112/79
f 57/49/80 63/51/80 74/114/80
f 63/88/81 59/55/81 72/70/81
f 58/52/82 64/58/82 70/60/82
f 62/57/83 70/98/83 66/64/83
f 78/76/84 84/78/84 69/116/84
f 69/66/148 84/110/148 80/82/148
f 79/79/86 73/73/86 76/75/86
f 83/84/149 76/106/149 72/70/149
f 99/99/88 71/67/88 77/69/88
f 77/119/89 73/73/89 100/102/89
f 78/76/90 106/107/90 112/109/90
f 112/121/91 108/111/91 79/79/91
f 107/82/150 101/105/150 104/106/150
f 104/122/93 100/102/93 108/111/93
f 85/85/94 99/99/94 105/101/94
f 105/72/95 101/105/95 86/55/95
f 106/107/96 92/92/96 98/94/96
f 109/110/151 98/66/151 94/64/151
f 87/89/98 90/91/98 97/125/98
f 90/57/99 86/55/99 94/64/99
f 57/49/100 85/85/100 91/87/100
f 91/127/101 87/89/101 58/52/101
f 65/61/102 67/63/102 95/128/102
f 67/129/103 64/58/103 93/95/103
f 99/99/104 85/85/104 57/49/104
f 66/64/54 80/82/54 72/70/54
f 93/95/105 64/58/105 58/52/105
f 106/107/106 78/76/106 65/61/106
f 79/79/107 108/111/107 100/102/107
f 107/82/50 94/64/50 86/55/50
f 113/130/19 116/142/19 117/131/19
f 114/133/108 118/152/108 117/134/20
f 115/136/21 119/161/152 117/137/152
f 120/139/24 123/154/109 124/140/109
f 121/130/22 125/132/22 124/131/22
f 122/143/23 126/169/23 124/144/110
f 127/146/13 130/153/13 131/147/13
f 128/149/153 132/174/153 131/150/14
f 129/133/154 133/135/154 131/134/154
f 134/146/16 137/148/16 138/147/16
f 135/139/155 139/141/155 138/140/155
f 136/155/18 140/176/114 138/156/114
f 141/158/7 144/165/7 145/159/7
f 142/136/8 146/138/8 145/137/8
f 143/162/9 147/173/9 145/163/9
f 148/158/10 151/160/10 152/159/10
f 149/166/117 153/177/117 152/167/117
f 150/143/12 154/145/12 152/144/12
f 155/170/1 158/175/1 159/171/1
f 156/162/128 160/164/128 159/163/128
f 157/149/3 161/151/3 159/150/3
f 162/170/5 165/172/5 166/171/5
f 163/155/6 167/157/123 166/156/123
f 164/166/156 168/168/156 166/167/156
f 113/130/39 119/132/39 130/153/39
f 119/161/40 115/136/40 128/149/40
f 120/139/38 126/141/38 118/152/38
f 126/169/37 122/143/37 115/136/37
f 134/146/41 140/153/41 125/132/41
f 140/176/42 136/155/42 122/143/42
f 129/133/43 132/152/43 139/141/43
f 132/174/44 128/149/44 136/155/44
f 127/146/45 133/148/45 158/175/45
f 133/135/46 129/133/46 156/162/46
f 162/170/47 168/175/47 137/148/47
f 168/168/48 164/166/48 135/139/48
f 157/149/28 160/174/28 167/157/28
f 160/164/27 156/162/27 164/166/27
f 155/170/25 161/172/25 144/165/25
f 161/151/26 157/149/26 142/136/26
f 148/158/29 154/165/29 165/172/29
f 154/145/30 150/143/30 163/155/30
f 143/162/31 146/164/31 153/177/31
f 146/138/32 142/136/32 150/143/32
f 141/158/33 147/160/33 116/142/33
f 147/173/34 143/162/34 114/133/34
f 121/130/35 123/142/35 151/160/35
f 123/154/36 120/139/36 149/166/36
f 155/170/49 141/158/49 113/130/49
f 122/143/54 136/155/54 128/149/54
f 149/166/53 120/139/53 114/133/53
f 134/146/52 121/130/52 148/158/52
f 135/139/51 164/166/51 156/162/51
f 163/155/50 150/143/50 142/136/50
f 169/178/19 172/187/19 173/179/19
f 170/181/20 174/191/108 173/182/108
f 171/136/21 175/161/21 173/137/21
f 176/184/24 179/193/109 180/185/109
f 177/178/22 181/180/22 180/179/22
f 178/143/23 182/169/23 180/144/110
f 183/188/13 186/192/13 187/189/13
f 184/149/153 188/174/153 187/150/14
f 185/181/154 189/183/154 187/182/154
f 190/188/16 193/190/16 194/189/16
f 191/184/155 195/186/155 194/185/155
f 192/155/18 196/176/18 194/156/18
f 197/194/7 200/200/7 201/195/7
f 198/136/8 202/138/8 201/137/8
f 199/197/9 203/207/9 201/198/9
f 204/194/10 207/196/10 208/195/10
f 205/201/117 209/209/117 208/202/117
f 206/143/12 210/145/118 208/144/118
f 211/204/1 214/208/1 215/205/157
f 212/197/128 216/199/128 215/198/128
f 213/149/3 217/151/3 215/150/3
f 218/204/5 221/206/5 222/205/5
f 219/155/6 223/157/123 222/156/123
f 220/201/156 224/203/156 222/202/156
f 169/178/39 175/180/39 186/192/39
f 175/161/40 171/136/40 184/149/40
f 176/184/38 182/186/38 174/191/38
f 182/169/37 178/143/37 171/136/37
f 190/188/41 196/192/41 181/180/41
f 196/176/42 192/155/42 178/143/42
f 185/181/43 188/191/43 195/186/43
f 188/174/44 184/149/44 192/155/44
f 183/188/45 189/190/45 214/208/45
f 189/183/46 185/181/46 212/197/46
f 218/204/47 224/208/47 193/190/47
f 224/203/48 220/201/48 191/184/48
f 213/149/28 216/174/28 223/157/28
f 216/199/27 212/197/27 220/201/27
f 211/204/25 217/206/25 200/200/25
f 217/151/26 213/149/26 198/136/26
f 204/194/29 210/200/29 221/206/29
f 210/145/30 206/143/30 219/155/30
f 199/197/31 202/199/31 209/209/31
f 202/138/32 198/136/32 206/143/32
f 197/194/33 203/196/33 172/187/33
f 203/207/34 199/197/34 170/181/34
f 177/178/35 179/187/35 207/196/35
f 179/193/36 176/184/36 205/201/36
f 211/204/49 197/194/49 169/178/49
f 178/143/54 192/155/54 184/149/54
f 205/201/53 176/184/53 170/181/53
f 190/188/52 177/178/52 204/194/52
f 191/184/51 220/201/51 212/197/51
f 219/155/50 206/143/50 198/136/50
f 225/210/158 228/222/158 229/211/158
f 226/213/159 230/232/159 229/214/159
f 227/216/21 231/241/21 229/217/21
f 232/219/109 235/234/109 236/220/109
f 233/210/22 237/212/22 236/211/160
f 234/223/23 238/249/23 236/224/23
f 239/226/161 242/233/161 243/227/13
f 240/229/14 244/254/14 243/230/14
f 241/213/15 245/215/15 243/214/15
f 246/226/16 249/228/16 250/227/16
f 247/219/155 251/221/155 250/220/155
f 248/235/114 252/256/114 250/236/114
f 253/238/162 256/245/162 257/239/162
f 254/216/8 258/218/8 257/217/8
f 255/242/135 259/253/135 257/243/135
f 260/238/10 263/240/163 264/239/163
f 261/246/11 265/257/11 264/247/11
f 262/223/12 266/225/12 264/224/12
f 267/250/1 270/255/1 271/251/1
f 268/242/128 272/244/128 271/243/128
f 269/229/3 273/231/3 271/230/3
f 274/250/5 277/252/5 278/251/5
f 275/235/6 279/237/6 278/236/6
f 276/246/4 280/248/4 278/247/4
f 225/210/39 231/212/39 242/233/39
f 231/241/40 227/216/40 240/229/40
f 232/219/38 238/221/38 230/232/38
f 238/249/37 234/223/37 227/216/37
f 246/226/41 252/233/41 237/212/41
f 252/256/42 248/235/42 234/223/42
f 241/213/43 244/232/43 251/221/43
f 244/254/44 240/229/44 248/235/44
f 239/226/45 245/228/45 270/255/45
f 270/253/46 245/215/46 241/213/46
f 274/250/47 280/255/47 249/228/47
f 280/248/48 276/246/48 247/219/48
f 269/229/28 272/254/28 279/237/28
f 272/244/27 268/242/27 276/246/27
f 267/250/25 273/252/25 256/245/25
f 273/231/26 269/229/26 254/216/26
f 260/238/29 266/245/29 277/252/29
f 266/225/30 262/223/30 275/235/30
f 255/242/31 258/244/31 265/257/31
f 258/218/32 254/216/32 262/223/32
f 253/238/33 259/240/33 228/222/33
f 228/215/34 259/253/34 255/242/34
f 260/238/35 233/210/35 235/222/35
f 235/234/164 232/219/164 261/246/164
f 267/250/49 253/238/49 225/210/49
f 234/223/54 248/235/54 240/229/54
f 261/246/53 232/219/53 226/213/53
f 246/226/52 233/210/52 260/238/52
f 247/219/51 276/246/51 268/242/51
f 275/235/50 262/223/50 254/216/50
f 281/258/158 284/267/158 285/259/158
f 282/261/159 286/271/159 285/262/159
f 283/216/21 287/241/21 285/217/21
f 288/264/109 291/273/165 292/265/109
f 289/258/22 293/260/22 292/259/160
f 290/223/23 294/249/23 292/224/23
f 295/268/161 298/272/161 299/269/13
f 296/229/14 300/254/14 299/230/14
f 297/261/15 301/263/15 299/262/15
f 302/268/16 305/270/16 306/269/16
f 303/264/155 307/266/155 306/265/155
f 304/235/18 308/256/18 306/236/18
f 309/274/162 312/280/162 313/275/162
f 310/216/8 314/218/8 313/217/8
f 311/277/135 315/287/135 313/278/135
f 316/274/10 319/276/163 320/275/163
f 317/281/11 321/289/11 320/282/11
f 318/223/12 322/225/12 320/224/12
f 323/284/1 326/288/1 327/285/1
f 324/277/128 328/279/128 327/278/128
f 325/229/3 329/231/3 327/230/3
f 330/284/5 333/286/5 334/285/5
f 331/235/6 335/237/6 334/236/6
f 332/281/4 336/283/4 334/282/4
f 281/258/39 287/260/39 298/272/39
f 287/241/40 283/216/40 296/229/40
f 288/264/38 294/266/38 286/271/38
f 294/249/37 290/223/37 283/216/37
f 302/268/41 308/272/41 293/260/41
f 308/256/42 304/235/42 290/223/42
f 297/261/43 300/271/43 307/266/43
f 300/254/44 296/229/44 304/235/44
f 295/268/45 301/270/45 326/288/45
f 326/287/46 301/263/46 297/261/46
f 330/284/47 336/288/47 305/270/47
f 336/283/48 332/281/48 303/264/48
f 325/229/28 328/254/28 335/237/28
f 328/279/27 324/277/27 332/281/27
f 323/284/25 329/286/25 312/280/25
f 329/231/26 325/229/26 310/216/26
f 316/274/29 322/280/29 333/286/29
f 322/225/30 318/223/30 331/235/30
f 311/277/31 314/279/31 321/289/31
f 314/218/32 310/216/32 318/223/32
f 309/274/33 315/276/33 284/267/33
f 284/263/34 315/287/34 311/277/34
f 316/274/35 289/258/35 291/267/35
f 291/273/164 288/264/164 317/281/164
f 323/284/49 309/274/49 281/258/49
f 290/223/54 304/235/54 296/229/54
f 317/281/53 288/264/53 282/261/53
f 302/268/52 289/258/52 316/274/52
f 303/264/51 332/281/51 324/277/51
f 331/235/50 318/223/50 310/216/50
f 337/290/158 340/296/158 341/291/158
f 338/213/20 342/232/20 341/214/20
f 339/293/152 343/313/152 341/294/152
f 344/219/24 347/234/24 348/220/24
f 345/290/22 349/292/22 348/291/22
f 346/297/166 350/315/166 348/298/166
f 351/300/161 354/306/161 355/301/161
f 352/303/14 356/319/133 355/304/14
f 353/213/154 357/215/154 355/214/154
f 358/300/167 361/302/167 362/301/167
f 359/219/155 363/221/155 362/220/155
f 360/307/131 364/321/131 362/308/131
f 365/310/162 368/314/162 369/311/7
f 366/293/168 370/295/168 369/294/168
f 367/242/9 371/253/9 369/243/9
f 372/310/10 375/312/163 376/311/163
f 373/246/11 377/257/11 376/247/11
f 374/297/118 378/299/118 376/298/118
f 379/316/157 382/320/157 383/317/157
f 380/242/128 384/244/128 383/243/128
f 381/303/129 385/305/129 383/304/129
f 386/316/5 389/318/169 390/317/169
f 387/307/6 391/309/138 390/308/6
f 388/246/156 392/248/156 390/247/156
f 337/290/39 343/292/39 354/306/39
f 343/313/40 339/293/40 352/303/40
f 344/219/38 350/221/38 342/232/38
f 350/315/37 346/297/37 339/293/37
f 358/300/41 364/306/41 349/292/41
f 364/321/42 360/307/42 346/297/42
f 353/213/43 356/232/43 363/221/43
f 356/319/44 352/303/44 360/307/44
f 351/300/45 357/302/45 382/320/45
f 382/253/46 357/215/46 353/213/46
f 386/316/47 392/320/47 361/302/47
f 392/248/48 388/246/48 359/219/48
f 381/303/28 384/319/28 391/309/28
f 384/244/27 380/242/27 388/246/27
f 379/316/25 385/318/25 368/314/25
f 385/305/26 381/303/26 366/293/26
f 372/310/29 378/314/29 389/318/29
f 378/299/30 374/297/30 387/307/30
f 367/242/31 370/244/31 377/257/31
f 370/295/32 366/293/32 374/297/32
f 365/310/33 371/312/33 340/296/33
f 340/215/34 371/253/34 367/242/34
f 372/310/35 345/290/35 347/296/35
f 347/234/36 344/219/36 373/246/36
f 379/316/49 365/310/49 337/290/49
f 346/297/54 360/307/54 352/303/54
f 373/246/53 344/219/53 338/213/53
f 358/300/52 345/290/52 372/310/52
f 359/219/51 388/246/51 380/242/51
f 387/307/50 374/297/50 366/293/50
f 393/322/158 396/325/158 397/323/158
f 394/261/20 398/271/20 397/262/20
f 395/293/152 399/313/152 397/294/152
f 400/264/24 403/273/24 404/265/24
f 401/322/22 405/324/22 404/323/22
f 402/297/166 406/315/166 404/298/166
f 407/326/161 410/329/161 411/327/161
f 408/303/14 412/319/14 411/304/14
f 409/261/154 413/263/154 411/262/154
f 414/326/167 417/328/167 418/327/167
f 415/264/155 419/266/155 418/265/155
f 416/307/131 420/321/131 418/308/131
f 421/330/162 424/333/162 425/331/162
f 422/293/168 426/295/168 425/294/168
f 423/277/9 427/287/9 425/278/9
f 428/330/10 431/332/163 432/331/163
f 429/281/11 433/289/11 432/282/11
f 430/297/118 434/299/118 432/298/118
f 435/334/157 438/337/157 439/335/157
f 436/277/128 440/279/128 439/278/128
f 437/303/129 441/305/129 439/304/129
f 442/334/169 445/336/169 446/335/169
f 443/307/6 447/309/138 446/308/138
f 444/281/156 448/283/156 446/282/156
f 393/322/39 399/324/39 410/329/39
f 399/313/40 395/293/40 408/303/40
f 400/264/38 406/266/38 398/271/38
f 406/315/37 402/297/37 395/293/37
f 414/326/41 420/329/41 405/324/41
f 420/321/42 416/307/42 402/297/42
f 409/261/43 412/271/43 419/266/43
f 412/319/44 408/303/44 416/307/44
f 407/326/45 413/328/45 438/337/45
f 438/287/46 413/263/46 409/261/46
f 442/334/47 448/337/47 417/328/47
f 448/283/48 444/281/48 415/264/48
f 437/303/28 440/319/28 447/309/28
f 440/279/27 436/277/27 444/281/27
f 435/334/25 441/336/25 424/333/25
f 441/305/26 437/303/26 422/293/26
f 428/330/29 434/333/29 445/336/29
f 434/299/30 430/297/30 443/307/30
f 423/277/31 426/279/31 433/289/31
f 426/295/32 422/293/32 430/297/32
f 421/330/33 427/332/33 396/325/33
f 396/263/34 427/287/34 423/277/34
f 428/330/35 401/322/35 403/325/35
f 403/273/36 400/264/36 429/281/36
f 435/334/49 421/330/49 393/322/49
f 402/297/54 416/307/54 408/303/54
f 429/281/53 400/264/53 394/261/53
f 414/326/52 401/322/52 428/330/52
f 415/264/51 444/281/51 436/277/51
f 443/307/50 430/297/50 422/293/50
f 449/338/1 452/350/1 453/339/1
f 450/341/2 454/360/2 453/342/2
f 451/344/3 455/369/3 453/345/3
f 456/347/4 459/362/4 460/348/4
f 457/338/5 461/340/5 460/339/5
f 458/351/6 462/377/6 460/352/6
f 463/354/7 466/361/7 467/355/7
f 464/357/8 468/382/8 467/358/8
f 465/341/135 469/343/135 467/342/135
f 470/354/10 473/356/10 474/355/10
f 471/347/170 475/349/170 474/348/170
f 472/363/12 476/384/12 474/364/12
f 477/366/13 480/373/13 481/367/13
f 478/344/14 482/346/14 481/345/14
f 479/370/15 483/381/15 481/371/15
f 484/366/16 487/368/16 488/367/16
f 485/374/17 489/385/17 488/375/17
f 486/351/18 490/353/18 488/352/18
f 491/378/19 494/383/19 495/379/19
f 492/370/20 496/372/20 495/371/20
f 493/357/21 497/359/21 495/358/21
f 498/378/22 501/380/22 502/379/22
f 499/363/23 503/365/23 502/364/23
f 500/374/109 504/376/109 502/375/109
f 449/338/25 455/340/25 466/361/25
f 455/369/26 451/344/26 464/357/26
f 456/347/27 462/349/27 454/360/27
f 462/377/28 458/351/28 451/344/28
f 470/354/29 476/361/29 461/340/29
f 476/384/30 472/363/30 458/351/30
f 465/341/31 468/360/31 475/349/31
f 468/382/32 464/357/32 472/363/32
f 463/354/33 469/356/33 494/383/33
f 469/343/34 465/341/34 492/370/34
f 498/378/35 504/383/35 473/356/35
f 504/376/36 500/374/36 471/347/36
f 493/357/37 496/382/37 503/365/37
f 496/372/38 492/370/38 500/374/38
f 491/378/39 497/380/39 480/373/39
f 497/359/40 493/357/40 478/344/40
f 484/366/41 490/373/41 501/380/41
f 490/353/42 486/351/42 499/363/42
f 479/370/43 482/372/43 489/385/43
f 482/346/44 478/344/44 486/351/44
f 477/366/45 483/368/45 452/350/45
f 483/381/46 479/370/46 450/341/46
f 457/338/47 459/350/47 487/368/47
f 459/362/48 456/347/48 485/374/48
f 491/378/49 477/366/49 449/338/49
f 458/351/50 472/363/50 464/357/50
f 485/374/51 456/347/51 450/341/51
f 470/354/52 457/338/52 484/366/52
f 471/347/53 500/374/53 492/370/53
f 499/363/54 486/351/54 478/344/54
f 506/386/140 508/392/140 507/387/140
f 507/389/141 508/449/141 510/390/141
f 510/392/142 512/386/142 511/388/142
f 511/388/143 512/386/143 514/393/143
f 510/397/49 508/450/49 514/395/49
f 508/450/49 506/451/49 514/395/49
f 506/451/49 516/452/49 514/395/49
f 514/390/144 516/449/144 515/389/144
f 516/393/145 506/386/145 505/388/145
f 515/400/52 505/453/52 507/398/52
f 507/398/52 509/454/52 511/399/52
f 511/399/52 513/455/52 515/400/52
usemtl M_LampGlass
f 517/401/1 521/402/1 523/403/1
f 518/404/2 521/405/2 520/406/2
f 519/407/3 521/408/3 522/409/3
f 524/410/4 528/411/4 530/412/4
f 525/401/5 528/402/5 527/413/5
f 526/414/6 528/415/6 529/416/6
f 531/417/7 535/418/7 537/419/7
f 532/420/8 535/421/8 534/422/8
f 533/404/9 535/405/9 536/423/9
f 538/417/10 542/418/10 544/424/10
f 539/410/11 542/411/11 541/425/11
f 540/426/12 542/427/12 543/428/12
f 545/429/13 549/430/13 551/431/13
f 546/407/14 549/408/14 548/432/14
f 547/433/15 549/434/15 550/435/15
f 552/429/16 556/430/16 558/436/16
f 553/437/17 556/438/17 555/439/17
f 554/414/18 556/415/18 557/440/18
f 559/441/19 563/442/19 565/443/19
f 560/433/20 563/434/20 562/444/20
f 561/420/21 563/421/21 564/445/21
f 566/441/22 570/442/22 572/446/22
f 567/426/23 570/427/23 569/447/23
f 568/437/24 570/438/24 571/448/24
f 517/401/25 534/424/25 531/417/25
f 523/432/26 532/420/26 534/422/26
f 524/410/27 522/423/27 518/404/27
f 530/440/28 519/407/28 522/409/28
f 538/417/29 529/403/29 525/401/29
f 544/447/30 526/414/30 529/416/30
f 533/404/31 543/412/31 539/410/31
f 536/445/32 540/426/32 543/428/32
f 531/417/33 562/446/33 559/441/33
f 537/406/34 560/433/34 562/444/34
f 566/441/35 541/419/35 538/417/35
f 572/439/36 539/410/36 541/425/36
f 561/420/37 571/428/37 567/426/37
f 564/435/38 568/437/38 571/448/38
f 559/441/39 548/436/39 545/429/39
f 565/422/40 546/407/40 548/432/40
f 552/429/41 569/443/41 566/441/41
f 558/416/42 567/426/42 569/447/42
f 547/433/43 557/448/43 553/437/43
f 550/409/44 554/414/44 557/440/44
f 545/429/45 520/413/45 517/401/45
f 551/444/46 518/404/46 520/406/46
f 525/401/47 555/431/47 552/429/47
f 527/425/48 553/437/48 555/439/48
f 559/441/49 517/401/49 531/417/49
f 526/414/50 532/420/50 519/407/50
f 553/437/51 518/404/51 547/433/51
f 538/417/52 552/429/52 566/441/52
f 539/410/53 560/433/53 533/404/53
f 567/426/54 546/407/54 561/420/54
f 517/401/1 520/413/1 521/402/1
f 518/404/2 522/423/2 521/405/2
f 519/407/3 523/432/3 521/408/3
f 524/410/4 527/425/4 528/411/4
f 525/401/5 529/403/5 528/402/5
f 526/414/6 530/440/6 528/415/6
f 531/417/7 534/424/7 535/418/7
f 532/420/8 536/445/8 535/421/8
f 533/404/9 537/406/9 535/405/9
f 538/417/10 541/419/10 542/418/10
f 539/410/11 543/412/11 542/411/11
f 540/426/12 544/447/12 542/427/12
f 545/429/13 548/436/13 549/430/13
f 546/407/14 550/409/14 549/408/14
f 547/433/15 551/444/15 549/434/15
f 552/429/16 555/431/16 556/430/16
f 553/437/17 557/448/17 556/438/17
f 554/414/18 558/416/18 556/415/18
f 559/441/19 562/446/19 563/442/19
f 560/433/20 564/435/20 563/434/20
f 561/420/21 565/422/21 563/421/21
f 566/441/22 569/443/22 570/442/22
f 567/426/23 571/428/23 570/427/23
f 568/437/24 572/439/24 570/438/24
f 517/401/25 523/403/25 534/424/25
f 523/432/26 519/407/26 532/420/26
f 524/410/27 530/412/27 522/423/27
f 530/440/28 526/414/28 519/407/28
f 538/417/29 544/424/29 529/403/29
f 544/447/30 540/426/30 526/414/30
f 533/404/31 536/423/31 543/412/31
f 536/445/32 532/420/32 540/426/32
f 531/417/33 537/419/33 562/446/33
f 537/406/34 533/404/34 560/433/34
f 566/441/35 572/446/35 541/419/35
f 572/439/36 568/437/36 539/410/36
f 561/420/37 564/445/37 571/428/37
f 564/435/38 560/433/38 568/437/38
f 559/441/39 565/443/39 548/436/39
f 565/422/40 561/420/40 546/407/40
f 552/429/41 558/436/41 569/443/41
f 558/416/42 554/414/42 567/426/42
f 547/433/43 550/435/43 557/448/43
f 550/409/44 546/407/44 554/414/44
f 545/429/45 551/431/45 520/413/45
f 551/444/46 547/433/46 518/404/46
f 525/401/47 527/413/47 555/431/47
f 527/425/48 524/410/48 553/437/48
f 559/441/49 545/429/49 517/401/49
f 526/414/50 540/426/50 532/420/50
f 553/437/51 524/410/51 518/404/51
f 538/417/52 525/401/52 552/429/52
f 539/410/53 568/437/53 560/433/53
f 567/426/54 554/414/54 546/407/54
