# Blender 5.2.1 LTS
# www.blender.org
mtllib TunnelRockSmall.mtl
o TunnelRockSmall_Medium
v 0.000000 0.000000 0.000000
v 0.175447 0.060828 0.073925
v -0.051859 0.054724 0.124771
v -0.184908 0.071179 0.000000
v -0.070294 0.061512 -0.119979
v 0.180532 0.056980 -0.090222
v 0.070470 0.188404 0.129267
v -0.148055 0.179721 0.093318
v -0.147914 0.182038 -0.074720
v 0.058857 0.184856 -0.144108
v 0.184053 0.191525 0.000000
v 0.000000 0.262626 0.000000
vn 0.1225 -0.8892 0.4409
vn 0.3153 -0.9484 0.0320
vn -0.3477 -0.9032 0.2516
vn -0.3470 -0.9014 -0.2589
vn 0.0404 -0.8793 -0.4745
vn 0.9984 -0.0476 0.0320
vn 0.2183 -0.2316 0.9480
vn -0.6645 -0.3445 0.6631
vn -0.7153 -0.2104 -0.6664
vn 0.1072 -0.2978 -0.9486
vn 0.7103 0.3105 0.6317
vn -0.1658 0.1188 0.9790
vn -0.9478 0.3187 0.0036
vn -0.3164 0.1481 -0.9370
vn 0.6850 0.3933 -0.6133
vn 0.3413 0.8834 0.3212
vn -0.1224 0.8304 0.5435
vn -0.4829 0.8756 0.0117
vn -0.1874 0.8304 -0.5247
vn 0.3395 0.8787 -0.3356
vt 0.500285 0.495053
vt 0.617250 0.445770
vt 0.465712 0.411872
vt 0.620640 0.555201
vt 0.377013 0.495053
vt 0.453423 0.575039
vt 0.445770 0.453010
vt 0.555201 0.450445
vt 0.495053 0.540141
vt 0.465712 0.448941
vt 0.617250 0.453010
vt 0.547265 0.538061
vt 0.495053 0.459911
vt 0.411872 0.448941
vt 0.432841 0.532272
vt 0.575039 0.453466
vt 0.544867 0.533817
vt 0.620640 0.450445
vt 0.453423 0.453466
vt 0.539523 0.535695
vt 0.408875 0.538061
vt 0.401582 0.532272
vt 0.401676 0.533817
vt 0.591125 0.535695
vt 0.547265 0.408875
vt 0.622987 0.495053
vt 0.401582 0.432841
vt 0.401676 0.544867
vt 0.539523 0.591125
s 0
usemtl M_TunnelDark
f 1/1/1 2/2/1 3/3/1
f 2/2/2 1/1/2 6/4/2
f 1/1/3 3/3/3 4/5/3
f 1/1/4 4/5/4 5/6/4
f 1/1/5 5/6/5 6/4/5
f 2/7/6 6/8/6 11/9/6
f 3/10/7 2/11/7 7/12/7
f 4/13/8 3/14/8 8/15/8
f 5/16/9 4/13/9 9/17/9
f 6/18/10 5/19/10 10/20/10
f 2/7/11 11/9/11 7/21/11
f 3/10/12 7/12/12 8/22/12
f 4/13/13 8/15/13 9/17/13
f 5/19/14 9/23/14 10/20/14
f 6/8/15 10/24/15 11/9/15
f 7/25/16 11/26/16 12/1/16
f 8/27/17 7/25/17 12/1/17
f 9/28/18 8/27/18 12/1/18
f 10/29/19 9/28/19 12/1/19
f 11/26/20 10/29/20 12/1/20
