# Blender 5.2.1 LTS
# www.blender.org
mtllib TunnelPuddle.mtl
o PuddlePatch
v 0.000000 0.009000 0.000000
v 0.605143 0.010139 0.000000
v 0.477770 0.009403 -0.076316
v 0.497608 0.007701 -0.173968
v 0.343328 0.008022 -0.215544
v 0.235789 0.009148 -0.280871
v 0.070913 0.008023 -0.268307
v -0.084025 0.008065 -0.317916
v -0.228039 0.009541 -0.271639
v -0.333005 0.010140 -0.209064
v -0.453506 0.009767 -0.158549
v -0.552497 0.008443 -0.088252
v -0.584421 0.009094 -0.000000
v -0.549473 0.008135 0.087769
v -0.414400 0.009293 0.144877
v -0.358535 0.008532 0.225092
v -0.256034 0.008749 0.304986
v -0.088946 0.007738 0.336538
v 0.070664 0.009146 0.267366
v 0.205159 0.009571 0.244384
v 0.341019 0.010125 0.214095
v 0.480116 0.010281 0.167852
v 0.483085 0.008879 0.077165
vn -0.0019 1.0000 -0.0065
vn -0.0037 0.9998 -0.0182
vn 0.0023 1.0000 -0.0009
vn 0.0067 1.0000 0.0062
vn -0.0072 1.0000 -0.0056
vn 0.0013 1.0000 -0.0033
vn 0.0086 0.9999 -0.0052
vn 0.0046 1.0000 -0.0019
vn -0.0005 1.0000 0.0062
vn -0.0033 0.9999 0.0142
vn 0.0002 1.0000 -0.0073
vn 0.0002 0.9999 0.0109
vn -0.0035 0.9999 -0.0120
vn 0.0032 1.0000 0.0072
vn -0.0017 1.0000 -0.0006
vn 0.0051 1.0000 0.0051
vn -0.0081 1.0000 0.0016
vn -0.0031 1.0000 0.0003
vn -0.0039 1.0000 0.0009
vn -0.0019 1.0000 -0.0023
vn 0.0027 0.9999 -0.0154
vn -0.0019 0.9999 0.0134
vt 0.493093 0.506207
vt 0.896521 0.506207
vt 0.811606 0.557084
vt 0.824832 0.622186
vt 0.721978 0.649903
vt 0.650286 0.693454
vt 0.540368 0.685079
vt 0.437076 0.718151
vt 0.341067 0.687300
vt 0.271090 0.645583
vt 0.190755 0.611907
vt 0.124761 0.565042
vt 0.103479 0.506207
vt 0.126777 0.447695
vt 0.216826 0.409622
vt 0.254069 0.356146
vt 0.322403 0.302883
vt 0.433795 0.281849
vt 0.540202 0.327964
vt 0.629866 0.343284
vt 0.720439 0.363477
vt 0.813170 0.394306
vt 0.815149 0.454764
s 0
usemtl M_ClearStillWater
f 1/1/1 2/2/1 3/3/1
f 1/1/2 3/3/2 4/4/2
f 1/1/3 4/4/3 5/5/3
f 1/1/4 5/5/4 6/6/4
f 1/1/5 6/6/5 7/7/5
f 1/1/6 7/7/6 8/8/6
f 1/1/7 8/8/7 9/9/7
f 1/1/8 9/9/8 10/10/8
f 1/1/9 10/10/9 11/11/9
f 1/1/10 11/11/10 12/12/10
f 1/1/11 12/12/11 13/13/11
f 1/1/12 13/13/12 14/14/12
f 1/1/13 14/14/13 15/15/13
f 1/1/14 15/15/14 16/16/14
f 1/1/15 16/16/15 17/17/15
f 1/1/16 17/17/16 18/18/16
f 1/1/17 18/18/17 19/19/17
f 1/1/18 19/19/18 20/20/18
f 1/1/19 20/20/19 21/21/19
f 1/1/20 21/21/20 22/22/20
f 1/1/21 22/22/21 23/23/21
f 1/1/22 23/23/22 2/2/22
