# Blender 5.2.1 LTS
# www.blender.org
mtllib TunnelBrokenStones.mtl
o BrokenStoneCluster
v 0.340928 0.000000 0.148930
v 0.334567 0.046215 0.224838
v 0.269435 0.038443 0.174457
v 0.299682 0.039484 0.093763
v 0.383967 0.044828 0.082064
v 0.413938 0.037151 0.172426
v 0.292517 0.120745 0.216395
v 0.269878 0.128110 0.124012
v 0.345585 0.126880 0.069660
v 0.419028 0.131462 0.124879
v 0.389188 0.130294 0.213477
v 0.340928 0.189756 0.148930
v -0.055526 0.000000 0.145256
v -0.130407 0.037049 0.068211
v -0.001654 0.027381 0.085558
v 0.043180 0.035179 0.183226
v -0.047923 0.028708 0.233825
v -0.167943 0.034916 0.153712
v -0.056176 0.096290 0.053555
v 0.053288 0.099465 0.134192
v 0.007786 0.102592 0.224112
v -0.111738 0.100376 0.209015
v -0.150077 0.098958 0.108885
v -0.055526 0.127291 0.145256
v -0.205743 0.000000 -0.032216
v -0.151411 0.027274 -0.069454
v -0.163569 0.030810 0.004177
v -0.226706 0.026796 0.024567
v -0.273630 0.028651 -0.029972
v -0.225220 0.031449 -0.090617
v -0.138550 0.079716 -0.033222
v -0.189216 0.080551 0.041890
v -0.262411 0.078104 0.010894
v -0.251222 0.078288 -0.075034
v -0.181475 0.079602 -0.097951
v -0.205743 0.113725 -0.032216
v -0.066596 0.000000 0.111185
v -0.003009 0.039471 0.202640
v -0.141014 0.038385 0.163467
v -0.164946 0.038975 0.055733
v -0.049516 0.040383 0.016257
v 0.026636 0.036981 0.105270
v -0.077304 0.089235 0.191704
v -0.172924 0.086046 0.107947
v -0.127687 0.090269 0.022345
v 0.003979 0.089480 0.056678
v 0.035646 0.087681 0.168832
v -0.066596 0.127313 0.111185
v -0.150830 0.000000 0.194695
v -0.227398 0.026550 0.145605
v -0.108411 0.027113 0.139692
v -0.047313 0.026222 0.208098
v -0.123493 0.000000 0.250410
v -0.239104 0.000000 0.215963
v -0.171066 0.078984 0.129529
v -0.060891 0.075529 0.173856
v -0.079707 0.071555 0.235110
v -0.192516 0.072514 0.246465
v -0.247939 0.074442 0.182122
v -0.150830 0.104693 0.194695
v 0.039855 0.000000 -0.037073
v -0.018415 0.024616 -0.050796
v 0.039850 0.022069 -0.096575
v 0.100866 0.022899 -0.056539
v 0.072821 0.023451 0.010564
v 0.001822 0.018440 0.004561
v 0.011222 0.062426 -0.075263
v 0.080626 0.067676 -0.081378
v 0.085105 0.066965 -0.019576
v 0.038633 0.062708 0.010529
v -0.021587 0.063278 -0.017469
v 0.039855 0.086757 -0.037073
v -0.202551 0.000000 0.118754
v -0.310109 0.046959 0.118965
v -0.175114 0.039614 0.063652
v -0.102783 0.047303 0.094654
v -0.163861 0.039935 0.151954
v -0.281256 0.039869 0.164014
v -0.244078 0.113835 0.079779
v -0.109110 0.115007 0.068802
v -0.108674 0.112914 0.122281
v -0.229810 0.114801 0.176476
v -0.323383 0.107105 0.147943
v -0.202551 0.160529 0.118754
v 0.314013 0.000000 0.156384
v 0.379848 0.035684 0.071675
v 0.372969 0.038472 0.203314
v 0.292426 0.037934 0.246003
v 0.238888 0.044130 0.170272
v 0.295688 0.035997 0.058264
v 0.382301 0.104856 0.133842
v 0.331495 0.108732 0.257120
v 0.253159 0.113581 0.240198
v 0.246781 0.106166 0.106903
v 0.335594 0.107563 0.066794
v 0.314013 0.144405 0.156384
v -0.177359 0.000000 0.041686
v -0.264856 0.016885 0.079981
v -0.229969 0.021110 -0.023371
v -0.130532 0.022455 -0.036169
v -0.098591 0.000000 0.056505
v -0.170390 0.018351 0.132592
v -0.258676 0.061382 0.019963
v -0.177143 0.060994 -0.043031
v -0.101147 0.058379 -0.000389
v -0.115960 0.060863 0.110969
v -0.223018 0.057608 0.117600
v -0.177359 0.081553 0.041686
vn -0.2745 -0.8314 0.4832
vn 0.2492 -0.8178 0.5188
vn -0.5194 -0.8295 -0.2054
vn -0.0268 -0.8223 -0.5685
vn 0.5000 -0.8330 -0.2366
vn 0.5188 -0.2256 0.8246
vn -0.5766 -0.2367 0.7820
vn -0.9184 -0.1905 -0.3467
vn -0.1219 -0.2039 -0.9714
vn 0.9218 -0.2130 -0.3238
vn 0.0178 0.1225 0.9923
vn -0.9585 0.1433 0.2463
vn -0.5804 0.0814 -0.8103
vn 0.5875 0.1548 -0.7943
vn 0.9415 0.1098 0.3186
vn -0.0497 0.7158 0.6965
vn -0.6823 0.6963 0.2227
vn -0.4066 0.7040 -0.5823
vn 0.3766 0.7364 -0.5620
vn 0.6261 0.7478 0.2207
vn -0.0107 -0.9052 -0.4249
vn -0.3037 -0.9398 -0.1568
vn 0.3662 -0.9258 -0.0942
vn 0.2235 -0.9327 0.2831
vn -0.2593 -0.9120 0.3179
vn -0.9151 -0.0264 -0.4024
vn 0.0987 -0.3538 -0.9301
vn 0.8434 -0.4033 -0.3550
vn 0.4833 -0.2543 0.8377
vn -0.5503 -0.2102 0.8081
vn -0.4615 0.3800 -0.8016
vn 0.5888 0.0930 -0.8029
vn 0.8778 0.1956 0.4374
vn -0.1262 0.2223 0.9668
vn -0.8350 0.4523 0.3133
vn -0.1591 0.9356 -0.3152
vn 0.2050 0.9268 -0.3148
vn 0.2558 0.9620 0.0960
vn -0.0606 0.9376 0.3424
vn -0.3242 0.9395 0.1108
vn 0.5124 -0.8495 0.1254
vn 0.0934 -0.8633 -0.4960
vn 0.2090 -0.8524 0.4794
vn -0.3649 -0.8868 0.2838
vn -0.3753 -0.8626 -0.3393
vn 0.2391 -0.3549 -0.9038
vn 0.9239 -0.3434 0.1690
vn 0.2977 -0.4746 0.8284
vn -0.7189 -0.3385 0.6070
vn -0.7582 -0.2162 -0.6152
vn 0.8204 0.1749 -0.5444
vn 0.8290 0.0035 0.5592
vn -0.3891 -0.0254 0.9208
vn -0.9415 0.3143 -0.1219
vn -0.3115 0.1398 -0.9399
vn 0.4293 0.8566 -0.2862
vn 0.4363 0.8536 0.2848
vn -0.2149 0.8726 0.4386
vn -0.5697 0.8187 -0.0724
vn -0.1819 0.8437 -0.5051
vn -0.1252 -0.8763 0.4652
vn 0.3727 -0.9178 0.1369
vn -0.4085 -0.9087 0.0858
vn -0.1284 -0.9040 -0.4077
vn 0.3321 -0.8880 -0.3180
vn 0.8345 -0.4823 0.2664
vn -0.2667 -0.1905 0.9448
vn -0.9056 -0.3744 0.1991
vn -0.2981 -0.3591 -0.8844
vn 0.7262 -0.2712 -0.6317
vn 0.1821 0.4625 0.8677
vn -0.6144 0.3885 0.6867
vn -0.8406 0.3321 -0.4279
vn 0.2266 0.4599 -0.8586
vn 0.9500 0.1642 -0.2656
vn 0.1006 0.8942 0.4362
vn -0.3467 0.8649 0.3629
vn -0.3544 0.9243 -0.1417
vn 0.1234 0.8829 -0.4530
vn 0.4085 0.9072 -0.1008
vn -0.0183 -0.8911 -0.4534
vn -0.0878 -0.9271 -0.3644
vn 0.2681 -0.9299 -0.2516
vn 0.2590 -0.9575 -0.1271
vn -0.0000 -1.0000 -0.0000
vn -0.9449 -0.2216 -0.2408
vn -0.0469 -0.2464 -0.9680
vn 0.7204 -0.2507 -0.6467
vn 0.5162 -0.1351 0.8457
vn -0.2789 -0.2146 0.9360
vn -0.5431 0.3493 -0.7636
vn 0.3668 0.2685 -0.8907
vn 0.8520 0.4360 0.2900
vn 0.1003 0.1490 0.9837
vn -0.7386 0.2044 0.6424
vn -0.2509 0.9245 -0.2868
vn 0.1935 0.8907 -0.4115
vn 0.3385 0.9266 0.1641
vn 0.0637 0.8238 0.5633
vn -0.3190 0.8985 0.3017
vn -0.2998 -0.8945 -0.3317
vn -0.3974 -0.9167 0.0430
vn 0.2342 -0.9115 -0.3381
vn 0.3938 -0.9030 0.1720
vn 0.0278 -0.9043 0.4259
vn -0.8991 -0.3258 0.2923
vn -0.6183 -0.0237 -0.7856
vn 0.5384 -0.2094 -0.8162
vn 0.9227 0.0066 0.3856
vn -0.0793 -0.0681 0.9945
vn -0.8167 0.3369 -0.4686
vn -0.1105 0.4017 -0.9091
vn 0.9220 0.3821 -0.0624
vn 0.4693 0.4094 0.7824
vn -0.4094 0.2211 0.8851
vn -0.4138 0.8760 -0.2478
vn -0.1079 0.8731 -0.4754
vn 0.4068 0.9133 -0.0190
vn 0.2087 0.8707 0.4453
vn -0.1954 0.8774 0.4382
vn -0.3047 -0.6949 -0.6513
vn -0.3975 -0.9109 0.1112
vn 0.2868 -0.8398 -0.4609
vn 0.4698 -0.7872 0.3995
vn 0.0753 -0.6796 0.7297
vn -0.8009 -0.3940 0.4509
vn -0.3817 -0.1568 -0.9109
vn 0.4028 -0.2934 -0.8670
vn 0.6803 -0.2317 0.6954
vn 0.0996 -0.2294 0.9682
vn -0.6475 0.2101 -0.7326
vn -0.0815 0.1387 -0.9870
vn 0.9958 0.0913 -0.0045
vn 0.4084 0.0615 0.9107
vn -0.2947 0.0436 0.9546
vn -0.4498 0.7732 -0.4470
vn -0.0657 0.6732 -0.7365
vn 0.4512 0.8919 0.0312
vn 0.3129 0.6670 0.6762
vn -0.2301 0.8128 0.5352
vn 0.5204 -0.8527 0.0453
vn 0.0527 -0.9343 -0.3526
vn 0.2316 -0.8746 0.4260
vn -0.4551 -0.8541 0.2519
vn -0.5236 -0.8268 -0.2055
vn 0.1574 0.0299 -0.9871
vn 0.9950 -0.0836 0.0538
vn 0.4370 -0.3699 0.8199
vn -0.7748 -0.3624 0.5181
vn -0.8564 -0.3116 -0.4117
vn 0.7498 0.4274 -0.5051
vn 0.8974 0.2526 0.3619
vn -0.2131 -0.0357 0.9764
vn -0.9857 0.1643 0.0380
vn -0.3938 0.3222 -0.8609
vn 0.4194 0.8707 -0.2570
vn 0.5392 0.8190 0.1965
vn -0.0143 0.9418 0.3360
vn -0.4798 0.8770 -0.0258
vn -0.2007 0.8881 -0.4136
vn -0.2384 -0.9637 -0.1199
vn -0.0986 -0.9740 0.2042
vn -0.0245 -0.9565 -0.2906
vn 0.0471 -0.9670 -0.2505
vn -0.0377 -0.9790 0.2005
vn -0.4608 -0.2986 0.8358
vn -0.8997 -0.3013 -0.3160
vn -0.1173 -0.3098 -0.9435
vn 0.8647 -0.3307 -0.3781
vn 0.6027 -0.4297 0.6724
vn -0.7914 0.5272 0.3094
vn -0.5630 0.3853 -0.7311
vn 0.4566 0.4119 -0.7886
vn 0.9780 0.1660 0.1264
vn 0.0441 0.4075 0.9121
vn -0.2727 0.9524 0.1364
vn -0.1752 0.9567 -0.2326
vn 0.1633 0.9588 -0.2323
vn 0.3003 0.9537 0.0187
vn -0.0108 0.9555 0.2949
vt 0.695404 0.453770
vt 0.691163 0.403165
vt 0.647742 0.436752
vt 0.744077 0.438105
vt 0.667907 0.490548
vt 0.724096 0.498347
vt 0.691163 0.467558
vt 0.744077 0.461515
vt 0.727577 0.523611
vt 0.647742 0.462377
vt 0.663130 0.517245
vt 0.490548 0.463071
vt 0.436752 0.462377
vt 0.470382 0.522155
vt 0.724096 0.466633
vt 0.667907 0.463071
vt 0.698508 0.521335
vt 0.438105 0.461515
vt 0.498347 0.466633
vt 0.469804 0.524389
vt 0.408793 0.517245
vt 0.648037 0.522155
vt 0.747470 0.524389
vt 0.410738 0.523611
vt 0.663130 0.408793
vt 0.727577 0.410738
vt 0.648037 0.470382
vt 0.698508 0.506616
vt 0.747470 0.469804
vt 0.431101 0.456219
vt 0.381180 0.507582
vt 0.467016 0.496018
vt 0.356156 0.450581
vt 0.496905 0.430906
vt 0.436170 0.397173
vt 0.507582 0.461448
vt 0.450581 0.460025
vt 0.480466 0.502720
vt 0.467016 0.455002
vt 0.381180 0.461448
vt 0.430668 0.500941
vt 0.430906 0.460201
vt 0.496018 0.455002
vt 0.463595 0.503058
vt 0.436170 0.455887
vt 0.496905 0.460201
vt 0.473309 0.505143
vt 0.356156 0.460025
vt 0.393627 0.503665
vt 0.368067 0.502720
vt 0.503643 0.503058
vt 0.403648 0.505143
vt 0.413713 0.503665
vt 0.430668 0.517353
vt 0.368067 0.480466
vt 0.503643 0.463595
vt 0.473309 0.403648
vt 0.393627 0.413713
vt 0.330956 0.574534
vt 0.367177 0.599359
vt 0.359073 0.550272
vt 0.317972 0.613468
vt 0.316981 0.536678
vt 0.285698 0.573038
vt 0.367177 0.454931
vt 0.317972 0.457714
vt 0.347135 0.489816
vt 0.550272 0.457288
vt 0.599359 0.454931
vt 0.575204 0.489892
vt 0.316981 0.454612
vt 0.359073 0.457288
vt 0.341975 0.490449
vt 0.573038 0.455849
vt 0.536678 0.454612
vt 0.545794 0.488818
vt 0.613468 0.457714
vt 0.603079 0.488940
vt 0.618357 0.489816
vt 0.525130 0.490449
vt 0.293177 0.488818
vt 0.300637 0.488940
vt 0.375751 0.575204
vt 0.347135 0.618357
vt 0.341975 0.525130
vt 0.293177 0.545794
vt 0.300637 0.603079
vt 0.423721 0.478933
vt 0.466112 0.417963
vt 0.374109 0.444078
vt 0.485876 0.482876
vt 0.358155 0.515901
vt 0.435108 0.542218
vt 0.417963 0.463062
vt 0.482876 0.461402
vt 0.440502 0.495202
vt 0.374109 0.462338
vt 0.466112 0.463062
vt 0.416583 0.496238
vt 0.515901 0.462732
vt 0.444078 0.462338
vt 0.481092 0.494112
vt 0.435108 0.463670
vt 0.358155 0.462732
vt 0.382994 0.496928
vt 0.542218 0.463670
vt 0.515271 0.496402
vt 0.491882 0.495202
vt 0.352836 0.494112
vt 0.538159 0.496928
vt 0.470771 0.496402
vt 0.416583 0.425253
vt 0.491882 0.440502
vt 0.352836 0.481092
vt 0.382994 0.538159
vt 0.470771 0.515271
vt 0.367565 0.423260
vt 0.316520 0.455986
vt 0.395844 0.459928
vt 0.308716 0.409081
vt 0.436576 0.414325
vt 0.385790 0.386117
vt 0.455986 0.454448
vt 0.409081 0.436748
vt 0.431641 0.486376
vt 0.395844 0.454823
vt 0.316520 0.454448
vt 0.354074 0.489404
vt 0.414325 0.454229
vt 0.459928 0.454823
vt 0.437152 0.487101
vt 0.385790 0.436748
vt 0.436576 0.454229
vt 0.414981 0.484451
vt 0.308716 0.436748
vt 0.339775 0.485091
vt 0.302826 0.486376
vt 0.427524 0.487101
vt 0.396316 0.484451
vt 0.388746 0.485091
vt 0.354074 0.466704
vt 0.302826 0.431641
vt 0.427524 0.437152
vt 0.414981 0.396316
vt 0.339775 0.388746
vt 0.494688 0.577772
vt 0.455842 0.586920
vt 0.494685 0.617440
vt 0.469333 0.550015
vt 0.535362 0.590749
vt 0.516666 0.546014
vt 0.586920 0.453159
vt 0.550015 0.449041
vt 0.564703 0.478934
vt 0.494685 0.451460
vt 0.455842 0.453159
vt 0.475600 0.478366
vt 0.535362 0.452014
vt 0.521869 0.481866
vt 0.546014 0.452382
vt 0.590749 0.452014
vt 0.566107 0.481391
vt 0.469333 0.449041
vt 0.516666 0.452382
vt 0.493874 0.478553
vt 0.603232 0.478366
vt 0.607308 0.481866
vt 0.524855 0.481391
vt 0.453727 0.478934
vt 0.475600 0.603232
vt 0.453727 0.564703
vt 0.521869 0.607308
vt 0.524855 0.566107
vt 0.493874 0.546037
vt 0.333085 0.473887
vt 0.261379 0.473747
vt 0.351376 0.510622
vt 0.280614 0.443713
vt 0.399596 0.489953
vt 0.358877 0.451754
vt 0.333085 0.436748
vt 0.358877 0.463371
vt 0.280614 0.463327
vt 0.473747 0.468054
vt 0.443713 0.463327
vt 0.454428 0.508152
vt 0.351376 0.463157
vt 0.261379 0.468054
vt 0.305400 0.512638
vt 0.399596 0.468284
vt 0.395378 0.513419
vt 0.395669 0.512024
vt 0.314912 0.513282
vt 0.252530 0.508152
vt 0.489953 0.468284
vt 0.507188 0.513419
vt 0.471536 0.512024
vt 0.305400 0.499870
vt 0.252530 0.454428
vt 0.333085 0.543767
vt 0.395669 0.471536
vt 0.395378 0.507188
vt 0.314912 0.435406
vt 0.677460 0.448800
vt 0.721351 0.505273
vt 0.716764 0.417513
vt 0.665244 0.514214
vt 0.663069 0.389054
vt 0.627377 0.439542
vt 0.721351 0.460537
vt 0.665244 0.460746
vt 0.691847 0.508457
vt 0.417513 0.462396
vt 0.505273 0.460537
vt 0.463828 0.506652
vt 0.663069 0.462037
vt 0.716764 0.462396
vt 0.689115 0.509236
vt 0.439542 0.466168
vt 0.389054 0.462037
vt 0.392924 0.512469
vt 0.514214 0.460746
vt 0.481788 0.507525
vt 0.508527 0.508457
vt 0.381643 0.509236
vt 0.636891 0.512469
vt 0.632639 0.507525
vt 0.722986 0.463828
vt 0.691847 0.508527
vt 0.689115 0.381643
vt 0.636891 0.392924
vt 0.632639 0.481788
vt 0.349879 0.525266
vt 0.291547 0.499736
vt 0.314806 0.568637
vt 0.354525 0.464661
vt 0.381097 0.577169
vt 0.402391 0.515386
vt 0.291547 0.448005
vt 0.354525 0.448982
vt 0.319440 0.475154
vt 0.568637 0.450821
vt 0.499736 0.448005
vt 0.539747 0.477670
vt 0.381097 0.451718
vt 0.314806 0.450821
vt 0.350023 0.477410
vt 0.515386 0.436748
vt 0.577169 0.451718
vt 0.553316 0.475668
vt 0.402391 0.436748
vt 0.390812 0.477323
vt 0.474656 0.475154
vt 0.295668 0.477670
vt 0.400687 0.475668
vt 0.479077 0.477323
vt 0.295668 0.539747
vt 0.319440 0.474656
vt 0.350023 0.581743
vt 0.400687 0.553316
vt 0.390812 0.479077
s 0
usemtl M_DryStackWall
f 1/1/1 2/2/1 3/3/1
f 2/2/2 1/1/2 6/4/2
f 1/1/3 3/3/3 4/5/3
f 1/1/4 4/5/4 5/6/4
f 1/1/5 5/6/5 6/4/5
f 2/7/6 6/8/6 11/9/6
f 3/10/7 2/7/7 7/11/7
f 4/12/8 3/13/8 8/14/8
f 5/15/9 4/16/9 9/17/9
f 6/18/10 5/19/10 10/20/10
f 2/7/11 11/9/11 7/11/11
f 3/13/12 7/21/12 8/14/12
f 4/16/13 8/22/13 9/17/13
f 5/15/14 9/17/14 10/23/14
f 6/18/15 10/20/15 11/24/15
f 7/25/16 11/26/16 12/1/16
f 8/27/17 7/25/17 12/1/17
f 9/28/18 8/27/18 12/1/18
f 10/29/19 9/28/19 12/1/19
f 11/26/20 10/29/20 12/1/20
f 13/30/21 14/31/21 15/32/21
f 14/31/22 13/30/22 18/33/22
f 13/30/23 15/32/23 16/34/23
f 13/30/24 16/34/24 17/35/24
f 13/30/25 17/35/25 18/33/25
f 14/36/26 18/37/26 23/38/26
f 15/39/27 14/40/27 19/41/27
f 16/42/28 15/43/28 20/44/28
f 17/45/29 16/46/29 21/47/29
f 18/48/30 17/45/30 22/49/30
f 14/40/31 23/50/31 19/41/31
f 15/39/32 19/41/32 20/51/32
f 16/42/33 20/44/33 21/52/33
f 17/45/34 21/47/34 22/49/34
f 18/37/35 22/53/35 23/38/35
f 19/54/36 23/55/36 24/30/36
f 20/56/37 19/54/37 24/30/37
f 21/57/38 20/56/38 24/30/38
f 22/58/39 21/57/39 24/30/39
f 23/55/40 22/58/40 24/30/40
f 25/59/41 26/60/41 27/61/41
f 26/60/42 25/59/42 30/62/42
f 25/59/43 27/61/43 28/63/43
f 25/59/44 28/63/44 29/64/44
f 25/59/45 29/64/45 30/62/45
f 26/65/46 30/66/46 35/67/46
f 27/68/47 26/69/47 31/70/47
f 28/71/48 27/72/48 32/73/48
f 29/74/49 28/75/49 33/76/49
f 30/77/50 29/74/50 34/78/50
f 26/69/51 35/79/51 31/70/51
f 27/68/52 31/70/52 32/80/52
f 28/71/53 32/73/53 33/81/53
f 29/74/54 33/76/54 34/78/54
f 30/66/55 34/82/55 35/67/55
f 31/83/56 35/84/56 36/59/56
f 32/85/57 31/83/57 36/59/57
f 33/86/58 32/85/58 36/59/58
f 34/87/59 33/86/59 36/59/59
f 35/84/60 34/87/60 36/59/60
f 37/88/61 38/89/61 39/90/61
f 38/89/62 37/88/62 42/91/62
f 37/88/63 39/90/63 40/92/63
f 37/88/64 40/92/64 41/93/64
f 37/88/65 41/93/65 42/91/65
f 38/94/66 42/95/66 47/96/66
f 39/97/67 38/98/67 43/99/67
f 40/100/68 39/101/68 44/102/68
f 41/103/69 40/104/69 45/105/69
f 42/95/70 41/106/70 46/107/70
f 38/98/71 47/108/71 43/99/71
f 39/97/72 43/99/72 44/109/72
f 40/100/73 44/102/73 45/110/73
f 41/103/74 45/105/74 46/111/74
f 42/95/75 46/107/75 47/96/75
f 43/112/76 47/113/76 48/88/76
f 44/114/77 43/112/77 48/88/77
f 45/115/78 44/114/78 48/88/78
f 46/116/79 45/115/79 48/88/79
f 47/113/80 46/116/80 48/88/80
f 49/117/81 50/118/81 51/119/81
f 50/118/82 49/117/82 54/120/82
f 49/117/83 51/119/83 52/121/83
f 49/117/84 52/121/84 53/122/84
f 49/117/85 53/122/85 54/120/85
f 50/123/86 54/124/86 59/125/86
f 51/126/87 50/127/87 55/128/87
f 52/129/88 51/130/88 56/131/88
f 53/132/89 52/133/89 57/134/89
f 54/135/90 53/132/90 58/136/90
f 50/127/91 59/137/91 55/128/91
f 51/126/92 55/128/92 56/138/92
f 52/129/93 56/131/93 57/139/93
f 53/132/94 57/134/94 58/136/94
f 54/124/95 58/140/95 59/125/95
f 55/141/96 59/142/96 60/117/96
f 56/143/97 55/141/97 60/117/97
f 57/144/98 56/143/98 60/117/98
f 58/145/99 57/144/99 60/117/99
f 59/142/100 58/145/100 60/117/100
f 61/146/101 62/147/101 63/148/101
f 62/147/102 61/146/102 66/149/102
f 61/146/103 63/148/103 64/150/103
f 61/146/104 64/150/104 65/151/104
f 61/146/105 65/151/105 66/149/105
f 62/152/106 66/153/106 71/154/106
f 63/155/107 62/156/107 67/157/107
f 64/158/108 63/155/108 68/159/108
f 65/160/109 64/161/109 69/162/109
f 66/163/110 65/164/110 70/165/110
f 62/152/111 71/154/111 67/166/111
f 63/155/112 67/157/112 68/159/112
f 64/161/113 68/167/113 69/162/113
f 65/164/114 69/168/114 70/165/114
f 66/163/115 70/165/115 71/169/115
f 67/170/116 71/171/116 72/146/116
f 68/172/117 67/170/117 72/146/117
f 69/173/118 68/172/118 72/146/118
f 70/174/119 69/173/119 72/146/119
f 71/171/120 70/174/120 72/146/120
f 73/175/121 74/176/121 75/177/121
f 74/176/122 73/175/122 78/178/122
f 73/175/123 75/177/123 76/179/123
f 73/175/124 76/179/124 77/180/124
f 73/181/125 77/182/125 78/183/125
f 74/184/126 78/185/126 83/186/126
f 75/187/127 74/188/127 79/189/127
f 76/190/128 75/187/128 80/191/128
f 77/182/129 76/190/129 81/192/129
f 78/183/130 77/182/130 82/193/130
f 74/188/131 83/194/131 79/189/131
f 75/187/132 79/189/132 80/191/132
f 76/195/133 80/196/133 81/197/133
f 77/182/134 81/192/134 82/193/134
f 78/183/135 82/193/135 83/194/135
f 79/198/136 83/199/136 84/175/136
f 80/191/137 79/189/137 84/200/137
f 81/201/138 80/202/138 84/175/138
f 82/193/139 81/192/139 84/200/139
f 83/199/140 82/203/140 84/175/140
f 85/204/141 86/205/141 87/206/141
f 86/205/142 85/204/142 90/207/142
f 85/204/143 87/206/143 88/208/143
f 85/204/144 88/208/144 89/209/144
f 85/204/145 89/209/145 90/207/145
f 86/210/146 90/211/146 95/212/146
f 87/213/147 86/214/147 91/215/147
f 88/216/148 87/217/148 92/218/148
f 89/219/149 88/220/149 93/221/149
f 90/222/150 89/219/150 94/223/150
f 86/214/151 95/224/151 91/215/151
f 87/213/152 91/215/152 92/225/152
f 88/216/153 92/218/153 93/226/153
f 89/219/154 93/221/154 94/223/154
f 90/211/155 94/227/155 95/212/155
f 91/228/156 95/229/156 96/204/156
f 92/230/157 91/228/157 96/204/157
f 93/231/158 92/230/158 96/204/158
f 94/232/159 93/231/159 96/204/159
f 95/229/160 94/232/160 96/204/160
f 97/233/161 98/234/161 99/235/161
f 98/234/162 97/233/162 102/236/162
f 97/233/163 99/235/163 100/237/163
f 97/233/164 100/237/164 101/238/164
f 97/233/165 101/238/165 102/236/165
f 98/239/166 102/240/166 107/241/166
f 99/242/167 98/243/167 103/244/167
f 100/245/168 99/246/168 104/247/168
f 101/248/169 100/249/169 105/250/169
f 102/240/170 101/251/170 106/252/170
f 98/243/171 107/253/171 103/244/171
f 99/246/172 103/254/172 104/247/172
f 100/245/173 104/247/173 105/255/173
f 101/248/174 105/250/174 106/256/174
f 102/240/175 106/252/175 107/241/175
f 103/257/176 107/258/176 108/233/176
f 104/259/177 103/257/177 108/233/177
f 105/260/178 104/259/178 108/233/178
f 106/261/179 105/260/179 108/233/179
f 107/258/180 106/261/180 108/233/180
